<?xml version="1.0" standalone="no"?>
<!DOCTYPE svg PUBLIC "-//W3C//DTD SVG 20010904//EN"
 "http://www.w3.org/TR/2001/REC-SVG-20010904/DTD/svg10.dtd">
<svg version="1.0" xmlns="http://www.w3.org/2000/svg"
 width="1600.000000pt" height="1423.000000pt" viewBox="0 0 1600.000000 1423.000000"
 preserveAspectRatio="xMidYMid meet">

<g transform="translate(0.000000,1423.000000) scale(0.100000,-0.100000)"
fill="#000000" stroke="none">
<path d="M400 14214 c0 -8 5 -12 10 -9 6 3 10 10 10 16 0 5 -4 9 -10 9 -5 0
-10 -7 -10 -16z"/>
<path d="M2210 14205 c0 -30 4 -31 30 -5 26 26 25 30 -5 30 -20 0 -25 -5 -25
-25z"/>
<path d="M2372 14223 c-29 -4 -31 -7 -26 -29 4 -15 1 -31 -8 -42 -27 -31 -29
-49 -3 -45 12 3 22 10 21 16 0 7 3 12 9 12 5 0 9 -6 7 -12 -2 -7 3 -13 11 -13
22 0 55 -42 59 -75 2 -23 11 -34 41 -48 27 -14 41 -16 50 -8 7 5 24 7 37 4 16
-4 21 -3 16 5 -4 7 -16 12 -27 12 -21 0 -27 26 -7 32 19 7 1 38 -21 38 -13 0
-18 -5 -15 -14 6 -16 -21 -46 -42 -46 -11 0 -14 9 -12 33 2 24 7 31 21 29 11
-2 17 4 17 17 0 25 15 35 37 23 13 -8 21 -4 36 14 22 28 37 31 37 7 0 -10 4
-24 9 -32 8 -12 12 -12 25 -2 13 11 19 11 31 1 8 -7 22 -10 30 -6 8 3 15 1 15
-4 0 -6 14 -10 31 -10 24 0 30 3 25 16 -3 9 -6 33 -6 53 0 57 -26 81 -88 81
-28 0 -54 -4 -57 -10 -3 -5 -17 -10 -30 -10 -13 0 -27 5 -30 10 -8 13 -55 13
-55 0 0 -6 -14 -17 -32 -24 l-31 -14 29 -15 c16 -9 23 -16 17 -17 -7 0 -13
-10 -14 -22 0 -13 -3 -17 -6 -10 -2 6 -9 12 -15 12 -6 0 -8 -7 -4 -15 4 -12 2
-13 -12 -5 -30 17 -62 48 -62 59 0 6 14 14 30 18 21 4 30 11 30 24 0 19 -3 20
-68 12z m358 -28 c0 -17 -2 -18 -24 -9 -23 9 -20 24 4 24 11 0 20 -7 20 -15z
m-200 -16 c0 -5 -7 -9 -15 -9 -15 0 -20 12 -9 23 8 8 24 -1 24 -14z m110 1 c0
-5 -4 -10 -9 -10 -6 0 -13 5 -16 10 -3 6 1 10 9 10 9 0 16 -4 16 -10z m40 -41
c0 -5 -9 -9 -20 -9 -22 0 -27 16 -7 23 15 5 27 -1 27 -14z"/>
<path d="M3971 14200 c-5 -17 -17 -33 -25 -36 -8 -3 -17 -18 -21 -32 -4 -20
-18 -32 -50 -47 -27 -11 -45 -26 -45 -36 0 -9 -9 -24 -21 -35 -19 -17 -19 -19
-2 -26 11 -5 7 -6 -12 -2 -37 7 -42 11 -27 26 27 27 0 93 -34 86 -22 -4 -31
-28 -10 -28 12 0 16 -10 16 -38 0 -21 5 -43 11 -49 14 -14 -5 -53 -26 -53 -16
0 -39 -70 -26 -83 9 -9 61 12 61 25 0 4 8 3 19 -3 16 -11 39 9 197 170 99 101
181 185 183 187 2 2 -36 4 -86 4 l-91 0 -11 -30z m-85 -145 c7 -17 -21 -65
-36 -65 -15 0 -12 67 3 73 21 9 27 7 33 -8z"/>
<path d="M4679 14170 c-40 -33 -78 -60 -84 -60 -6 0 -19 -12 -30 -26 -11 -15
-34 -38 -52 -51 -27 -21 -34 -22 -51 -12 -17 11 -26 9 -61 -14 -23 -15 -55
-42 -72 -60 -25 -26 -28 -33 -15 -35 9 -2 26 8 37 22 32 41 47 33 53 -26 12
-122 18 -540 7 -534 -8 5 -11 -11 -9 -51 l1 -58 6 45 7 45 7 -55 c9 -73 14
-450 6 -450 -15 0 -19 41 -20 208 -1 97 -4 167 -6 155 -6 -30 -20 -29 -45 2
-11 14 -24 25 -29 25 -5 0 -9 -11 -9 -25 0 -14 -4 -25 -10 -25 -5 0 -10 18
-10 40 0 27 -4 40 -14 40 -9 0 -15 -19 -19 -60 -8 -75 1 -105 18 -64 l13 29
17 -39 c11 -26 14 -51 10 -73 -3 -19 -2 -33 4 -33 17 0 33 -67 21 -90 -14 -27
-24 -26 -16 3 6 24 -13 87 -26 87 -4 0 -8 18 -8 40 0 22 -4 40 -9 40 -11 0
-21 -25 -21 -50 0 -9 -7 -23 -15 -30 -17 -14 -21 -80 -5 -80 6 0 10 -58 11
-152 0 -84 5 -232 9 -328 34 -660 50 -1043 44 -1067 -3 -11 -1 -29 4 -39 5
-11 11 -77 13 -149 l4 -130 -25 0 -25 0 -11 150 c-15 197 -22 321 -33 610 -11
252 -25 522 -42 790 -10 158 -23 451 -35 775 -3 91 -10 180 -15 199 -4 19 -6
38 -3 43 4 5 7 30 9 54 2 24 8 50 14 58 11 14 5 26 -13 26 -6 0 -24 -18 -40
-40 -17 -22 -36 -40 -43 -40 -7 0 -13 -4 -13 -10 0 -5 -16 -16 -35 -24 -19 -8
-38 -22 -41 -30 -7 -17 -94 -56 -126 -56 -44 0 -118 98 -118 157 0 22 -2 25
-10 13 -5 -8 -10 -25 -10 -37 0 -25 -10 -29 -28 -11 -9 9 -12 6 -12 -14 0 -15
-6 -28 -12 -31 -9 -2 -13 -27 -14 -73 0 -111 -3 -136 -14 -129 -5 3 -10 -1
-10 -10 0 -8 -7 -18 -15 -21 -10 -4 -15 -21 -15 -53 0 -25 -5 -53 -10 -61 -7
-11 -10 -6 -10 20 0 19 -3 52 -6 72 -5 28 -9 34 -18 25 -13 -15 -6 -334 8
-357 6 -8 9 -48 7 -90 -2 -75 11 -350 29 -595 15 -200 30 -430 40 -640 6 -104
14 -255 20 -335 6 -80 13 -189 16 -242 5 -95 4 -98 -18 -103 -13 -3 -39 1 -58
9 -28 12 -32 16 -17 21 13 6 17 19 17 62 0 30 -4 62 -9 71 -5 9 -12 73 -15
141 -4 68 -11 132 -17 143 -6 11 -8 26 -5 33 2 7 2 16 -2 20 -3 3 -5 22 -3 41
1 19 -2 34 -8 34 -7 0 -11 30 -11 83 0 56 3 77 10 67 7 -11 10 -4 9 25 0 29
-3 35 -8 21 -17 -45 -22 27 -17 293 2 152 2 266 -1 254 -6 -32 -18 -29 -33 8
-14 32 -12 35 25 54 6 3 5 7 -2 11 -7 3 -13 12 -13 20 0 8 -6 13 -12 12 -8 -2
-13 7 -13 22 0 14 -7 28 -15 32 -13 6 -12 7 2 7 9 1 19 7 21 14 3 6 6 -1 7
-18 0 -22 3 -26 9 -15 5 9 6 57 2 110 l-8 95 -2 -70 c-1 -50 -4 -66 -11 -55
-9 13 -11 13 -20 0 -7 -11 -10 -6 -10 22 0 20 -4 47 -9 60 -5 13 -14 59 -20
103 -14 96 -32 165 -44 165 -12 0 -37 -27 -31 -33 3 -3 12 -3 20 0 10 4 14 -4
15 -28 2 -91 8 -182 13 -202 3 -12 3 -16 0 -9 -3 6 -11 12 -19 12 -15 0 -45
101 -45 153 0 40 -13 48 -29 19 -11 -20 5 -92 20 -92 11 0 -2 -74 -15 -83 -7
-5 0 -18 22 -37 39 -36 39 -40 7 -40 -22 0 -25 -4 -25 -40 0 -29 -4 -40 -15
-40 -19 0 -27 33 -21 88 3 31 0 45 -10 49 -8 3 -14 16 -14 29 0 28 8 30 27 7
13 -17 14 -16 9 7 -3 14 -6 41 -6 60 0 24 -3 31 -9 21 -5 -7 -7 -23 -4 -35 4
-21 4 -21 -11 -2 -9 11 -14 28 -11 38 3 10 8 27 11 38 4 16 1 20 -16 20 -22 0
-22 -1 -15 -167 7 -186 12 -233 25 -233 5 0 5 -13 0 -30 -5 -16 -5 -99 0 -187
8 -131 12 -160 27 -170 16 -12 16 -13 -1 -13 -16 0 -17 -6 -11 -46 3 -26 8
-94 10 -153 2 -58 9 -180 15 -271 20 -301 20 -310 7 -310 -195 -5 -1133 3
-1238 10 -80 5 -379 9 -665 9 -515 -1 -618 3 -631 25 -11 16 -14 43 -19 131
-3 44 -7 87 -11 95 -3 8 -7 51 -10 95 -2 44 -8 91 -13 105 -5 14 -14 90 -20
168 -6 79 -16 156 -22 170 -5 15 -10 55 -9 89 1 54 -1 62 -19 68 -19 6 -28 25
-12 25 4 0 13 4 20 9 20 12 -8 72 -41 90 -31 16 -26 31 9 31 13 0 24 6 24 13
0 9 -10 12 -28 10 -47 -6 -51 3 -39 105 11 97 27 124 27 46 0 -27 4 -43 10
-39 25 15 1 101 -25 91 -8 -3 -16 3 -18 12 -4 16 -5 15 -6 0 -1 -12 -9 -18
-26 -18 -22 0 -25 -4 -25 -40 0 -36 3 -40 25 -40 23 0 25 -4 25 -40 l0 -40
-40 0 c-29 0 -40 4 -40 15 0 11 -11 15 -40 15 -29 0 -40 -4 -40 -15 0 -9 9
-15 25 -15 23 0 25 -4 25 -40 0 -36 -2 -40 -25 -40 -22 0 -25 -4 -25 -39 0
-40 0 -40 -42 -44 l-43 -4 43 -1 42 -2 0 -75 c0 -74 0 -75 -26 -75 -26 0 -27
-1 -22 -52 6 -66 -4 -154 -17 -150 -5 2 -13 -7 -17 -20 -6 -23 -6 -23 -7 -1
-1 30 -18 38 -27 11 -3 -12 -15 -31 -25 -42 -19 -20 -26 -56 -10 -56 4 0 6
-11 4 -24 -3 -13 0 -27 6 -30 7 -5 11 2 11 16 0 13 5 29 11 35 8 8 8 17 -1 33
-14 26 -2 44 23 34 19 -7 23 -40 6 -46 -7 -2 -7 -17 0 -48 13 -57 14 -83 1
-75 -6 3 -10 26 -10 51 0 25 -5 44 -11 44 -6 0 -8 -7 -5 -16 3 -9 6 -40 6 -70
0 -41 3 -52 14 -48 8 3 16 -4 20 -18 10 -37 7 -88 -5 -88 -6 0 -8 -7 -5 -16 4
-9 2 -22 -3 -28 -5 -6 -6 -28 -1 -51 15 -77 20 -112 12 -85 -8 25 -9 24 -19
-10 -6 -19 -11 -53 -12 -74 -1 -22 -4 -43 -7 -47 -2 -4 0 -10 6 -14 5 -3 10
-23 10 -43 0 -60 18 -107 45 -122 l25 -14 -37 -13 c-25 -8 -90 -13 -185 -13
l-148 0 0 -5530 0 -5530 8000 0 8000 0 -1 4783 c-1 3308 -5 4767 -12 4735 -6
-27 -14 -48 -19 -48 -12 0 1 84 18 126 11 26 14 445 14 2333 l0 2301 -1504 0
c-1305 0 -1505 -2 -1509 -15 -3 -7 -29 -24 -56 -36 -28 -12 -51 -25 -51 -30 0
-4 -15 -6 -32 -3 -54 8 -139 -25 -165 -65 -13 -19 -23 -45 -23 -59 0 -23 -32
-62 -52 -62 -6 0 -7 -21 -3 -50 7 -48 6 -50 -17 -50 -34 0 -45 -10 -68 -62
-20 -45 -64 -78 -104 -78 -9 0 -16 -4 -16 -8 0 -5 -18 -14 -40 -21 -31 -9 -40
-17 -40 -34 0 -17 -9 -26 -35 -36 -19 -7 -40 -9 -45 -6 -23 14 -90 -46 -115
-102 -10 -23 -21 -33 -37 -33 -13 0 -32 -7 -42 -15 -11 -8 -33 -15 -49 -15
-28 0 -149 31 -192 50 -11 4 -54 18 -95 30 -41 12 -100 31 -131 41 -30 11 -61
19 -68 19 -6 0 -31 9 -54 20 -23 12 -58 25 -77 29 -19 5 -75 21 -125 37 -49
15 -117 34 -150 43 -78 21 -144 53 -145 69 0 7 -14 12 -36 12 -20 0 -49 8 -65
17 -24 14 -29 24 -29 55 0 27 4 38 15 38 11 0 15 12 15 44 0 35 6 49 29 72 27
28 28 32 21 84 -8 53 -7 56 21 82 16 15 29 30 29 33 0 3 -132 5 -293 5 l-294
0 -22 -24 c-15 -16 -20 -31 -16 -47 7 -32 -9 -59 -27 -41 -6 6 -20 12 -31 12
-22 0 -44 20 -49 46 -4 23 -23 16 -22 -8 1 -25 -13 -22 -32 7 -9 14 -22 25
-29 25 -7 0 -18 7 -25 15 -10 12 -45 15 -198 14 -122 0 -181 -4 -172 -10 8 -5
33 -8 55 -7 22 1 50 -4 62 -10 12 -7 29 -12 37 -12 9 0 16 -4 16 -9 0 -5 7 -8
16 -7 20 1 45 -63 37 -93 -9 -37 -83 -23 -83 15 0 28 -3 29 -34 9 -20 -14 -27
-14 -59 0 -20 8 -43 12 -52 9 -11 -5 -18 0 -22 14 -5 21 -43 27 -43 7 0 -6
-18 -11 -40 -11 -32 -1 -40 2 -40 17 0 16 -6 17 -52 12 -49 -5 -52 -4 -33 10
18 14 15 15 -42 10 -66 -6 -87 8 -35 23 25 7 23 8 -23 16 -27 5 -63 9 -80 9
-65 0 -120 1 -725 4 -544 3 -619 2 -580 -10 44 -13 141 -39 265 -71 33 -8 82
-21 109 -29 26 -8 52 -15 57 -15 5 0 28 -9 52 -19 50 -23 137 -52 227 -76 36
-9 79 -23 95 -30 70 -32 109 -45 136 -45 37 0 129 -36 129 -51 0 -4 -16 -10
-35 -13 -31 -6 -53 -22 -43 -31 1 -2 24 1 50 7 31 8 48 17 50 28 3 16 6 16 58
-1 l55 -18 -50 -1 c-70 -1 -81 -12 -88 -95 -4 -38 -11 -93 -15 -122 -14 -85 4
-161 23 -100 l7 22 8 -25 c7 -21 8 -19 9 18 1 39 3 42 30 42 28 0 28 -1 34
-67 4 -38 7 -107 7 -155 0 -70 3 -89 17 -96 15 -9 15 -21 -2 -163 -10 -85 -18
-212 -18 -284 0 -108 -3 -134 -18 -155 -15 -22 -16 -34 -7 -95 8 -55 6 -85 -6
-140 -8 -38 -17 -117 -21 -175 -3 -58 -10 -106 -15 -108 -13 -5 -13 -82 0 -82
12 0 12 -147 0 -175 -6 -15 -9 -4 -10 40 -2 58 -3 57 -16 -40 -8 -55 -13 -113
-10 -130 2 -16 -1 -38 -6 -47 -5 -10 -10 -65 -11 -122 -2 -83 -6 -108 -19
-123 -13 -14 -18 -37 -18 -81 0 -57 -3 -63 -35 -95 -27 -26 -35 -43 -37 -73
-1 -37 -1 -37 -5 -6 -9 67 -33 16 -33 -69 0 -40 -4 -43 -47 -39 -18 1 -23 -4
-23 -24 0 -14 -4 -26 -10 -26 -5 0 -10 7 -10 15 0 28 -17 15 -27 -20 -7 -21
-7 -37 -2 -41 16 -9 10 -37 -6 -30 -9 3 -20 -3 -27 -14 -7 -11 -17 -20 -21
-20 -11 0 -37 -26 -37 -38 0 -12 -230 -37 -239 -25 -3 5 -77 10 -163 11 -133
1 -158 -1 -158 -13 0 -11 -11 -15 -40 -15 -22 0 -40 5 -40 10 0 6 -33 10 -80
10 -44 0 -80 4 -80 8 0 13 -68 42 -83 36 -8 -3 -27 9 -43 26 -29 30 -29 30
-36 8 -4 -17 -6 -11 -7 20 -1 23 -2 42 -3 43 -53 10 -88 9 -88 -3 0 -24 -46
-61 -63 -51 -9 4 -16 13 -16 18 0 6 -8 12 -18 14 -15 3 -15 1 -4 -13 11 -13
11 -19 1 -31 -7 -8 -19 -15 -26 -15 -8 0 -14 -7 -14 -15 0 -11 -11 -15 -39
-15 -22 0 -46 7 -55 15 -8 8 -30 15 -49 15 l-35 0 -7 78 c-3 42 -5 112 -3 155
2 61 0 80 -12 87 -20 12 -27 207 -23 637 2 177 0 324 -5 327 -9 5 -21 -388
-23 -738 -1 -230 -4 -251 -40 -252 -35 0 -48 -11 -42 -35 4 -15 2 -20 -10 -17
-9 2 -23 -6 -31 -17 -13 -17 -17 -18 -25 -6 -8 12 -12 12 -25 2 -9 -7 -21 -9
-28 -5 -7 5 -26 9 -43 9 -16 1 -38 5 -47 9 -14 6 -18 4 -18 -10 0 -22 -9 -13
-15 15 -3 16 1 21 18 23 34 2 107 6 160 7 31 1 47 5 45 12 -5 14 -210 20
-1146 34 -194 3 -222 8 -222 41 0 18 43 17 94 -1 37 -13 66 -11 66 5 0 10 -77
24 -121 21 -32 -2 -37 1 -43 24 -4 15 -5 29 -3 31 7 7 52 7 103 0 31 -5 54 -4
58 2 3 5 -18 12 -50 14 -31 3 -59 10 -62 15 -4 6 -18 13 -31 14 -14 2 -26 10
-29 17 -3 10 14 11 80 6 45 -4 88 -10 93 -14 6 -4 41 -9 80 -11 56 -3 70 -1
73 11 2 12 -11 15 -69 15 -49 0 -74 4 -76 13 -3 8 -29 12 -84 12 -46 0 -79 4
-79 10 0 6 -9 10 -20 10 -15 0 -20 7 -20 26 0 15 4 23 11 19 6 -4 8 -13 5 -21
-3 -8 -1 -14 4 -14 6 0 10 21 10 46 0 37 -3 45 -15 40 -9 -3 -15 0 -15 10 0
10 6 14 15 11 8 -4 17 -2 20 3 3 5 -4 11 -15 15 -27 9 -25 23 4 34 29 12 36
29 36 91 0 40 -4 51 -21 60 -15 9 -24 8 -35 -1 -13 -11 -14 9 -10 167 3 98 5
206 6 239 0 33 3 54 6 48 10 -23 21 -14 16 12 -2 14 -10 25 -17 25 -8 0 -14
29 -18 93 -4 50 -11 164 -17 252 -6 88 -10 318 -9 510 2 306 -13 694 -27 717
-12 19 -5 119 10 150 9 18 13 34 8 36 -5 1 -7 15 -4 31 3 22 8 27 25 25 107
-14 243 -39 247 -45 3 -4 12 -7 20 -6 23 3 182 -23 205 -33 22 -10 142 -33
254 -50 41 -6 80 -14 85 -18 6 -5 27 -9 46 -11 19 -2 39 -6 45 -9 5 -3 16 -7
25 -7 8 -1 33 -5 55 -10 22 -4 51 -9 65 -11 76 -11 100 -17 100 -23 0 -4 12
-8 28 -8 15 -1 59 -9 97 -18 39 -9 81 -19 95 -21 101 -18 187 -39 198 -47 8
-6 12 -25 10 -43 -4 -43 15 -45 23 -2 3 18 11 43 17 55 10 19 9 24 -6 32 -10
6 -28 7 -40 4 -12 -3 -22 -1 -22 5 0 5 -17 12 -37 16 -21 3 -76 13 -123 22
-47 8 -100 18 -118 21 -18 3 -35 9 -38 14 -3 5 -21 9 -39 9 -19 0 -52 6 -72
14 -21 8 -74 17 -118 21 -44 3 -93 13 -110 20 -27 12 -130 36 -294 66 -29 5
-69 16 -88 24 -19 8 -73 19 -121 25 -47 6 -91 15 -98 21 -6 5 -31 10 -55 12
-24 1 -46 5 -49 9 -3 4 -39 11 -80 14 -41 4 -81 13 -88 21 -7 7 -20 13 -28 13
-8 0 -14 7 -14 15 0 12 -17 15 -90 15 l-91 0 6 -152 c3 -84 10 -263 15 -398
16 -392 31 -1182 43 -2150 4 -305 12 -757 17 -1005 5 -247 12 -568 15 -712 4
-192 3 -263 -5 -263 -8 0 -10 13 -5 39 3 21 2 74 -4 117 -6 44 -11 187 -12
319 0 132 -5 291 -10 354 -5 63 -12 203 -14 310 -3 108 -9 270 -15 361 -5 91
-8 176 -7 190 l2 25 -225 2 c-124 0 -307 2 -407 3 l-181 1 -12 30 c-7 16 -9
41 -6 56 9 33 8 23 1 193 -3 74 -10 169 -15 210 -5 41 -12 136 -15 210 -3 74
-7 191 -10 260 -3 69 -8 220 -11 335 -4 116 -7 230 -8 255 -1 25 -4 50 -8 55
-3 6 -7 91 -7 190 0 99 -4 263 -7 365 -4 102 -8 253 -8 335 -1 100 -5 157 -13
172 -20 35 -15 58 18 84 17 13 35 34 40 46 5 13 15 23 24 23 8 0 15 4 15 10 0
5 14 17 30 25 17 9 28 20 25 25 -4 6 2 13 12 17 25 9 73 45 73 55 0 4 -24 8
-54 8 -50 0 -57 -3 -127 -60z m5031 -60 c0 -5 -4 -10 -10 -10 -5 0 -10 5 -10
10 0 6 5 10 10 10 6 0 10 -4 10 -10z m-5198 -200 c4 0 10 11 14 24 6 24 6 24
25 5 17 -17 19 -39 23 -241 3 -123 5 -275 5 -338 0 -63 1 -124 1 -135 7 -105
4 -219 -7 -222 -9 -3 -13 7 -13 32 0 24 -4 34 -11 29 -10 -6 -10 -20 6 -114 4
-26 3 -30 -4 -15 -7 14 -10 -9 -10 -78 -1 -67 2 -96 10 -92 6 4 9 29 8 56 -2
36 2 54 14 66 9 10 17 13 18 8 1 -22 7 -78 14 -130 7 -57 -1 -135 -14 -135 -4
0 -12 12 -17 28 -8 20 -11 -8 -12 -120 -2 -95 1 -148 7 -148 6 0 10 -28 9 -68
0 -37 5 -85 12 -106 6 -20 9 -53 6 -71 -4 -19 -7 -109 -7 -200 0 -94 -4 -165
-10 -165 -5 0 -9 30 -10 68 0 37 -5 141 -10 232 -12 210 -25 488 -38 805 -5
138 -12 259 -15 270 -5 20 -20 301 -32 616 -7 166 0 222 20 167 5 -16 13 -28
18 -28z m4772 -69 c3 -4 -6 -6 -19 -3 -14 2 -25 6 -25 8 0 8 39 4 44 -5z
m3356 -1 c0 -5 -5 -10 -11 -10 -5 0 -7 5 -4 10 3 6 8 10 11 10 2 0 4 -4 4 -10z
m-3101 -51 c36 -5 72 -16 80 -23 9 -7 48 -19 86 -26 74 -13 145 -43 145 -61 0
-6 -4 -8 -8 -5 -4 2 -8 -4 -8 -15 0 -10 4 -19 9 -19 4 0 5 -4 2 -10 -4 -6 9
-10 30 -10 28 0 38 5 42 20 3 11 11 20 18 20 25 0 44 -12 39 -24 -2 -6 2 -29
10 -51 11 -29 15 -34 15 -17 1 12 7 22 15 22 8 0 18 9 21 20 4 13 15 20 31 20
25 0 44 -27 27 -39 -33 -22 -52 -266 -24 -294 6 -6 11 -19 11 -29 0 -20 23
-60 52 -92 24 -27 23 -34 -9 -49 -21 -9 -27 -9 -31 1 -6 19 -32 42 -47 42 -11
0 -12 -6 -6 -22 5 -13 16 -22 25 -22 12 1 15 -4 11 -16 -3 -9 1 -23 10 -30 8
-7 15 -16 15 -21 0 -5 11 -27 25 -49 21 -34 23 -43 13 -60 -20 -32 1 -43 45
-25 l37 15 20 -40 c17 -33 20 -59 21 -172 0 -84 4 -126 9 -113 5 11 9 76 9
145 1 69 5 131 10 139 9 14 31 7 31 -10 0 -5 15 -23 33 -39 22 -21 42 -29 67
-30 58 0 65 12 31 49 -44 47 -41 75 14 125 25 23 45 47 45 53 0 23 23 63 37
63 7 0 13 6 13 14 0 7 6 19 14 25 8 7 17 23 20 37 4 14 23 42 44 63 48 49 102
111 102 119 1 4 11 20 24 35 20 25 26 27 50 17 15 -5 42 -10 61 -10 36 0 165
-37 165 -47 0 -4 -7 -15 -17 -25 -24 -27 -8 -34 45 -18 51 14 139 14 187 0 17
-5 50 -14 75 -20 25 -7 65 -18 90 -25 40 -12 191 -53 275 -75 54 -15 109 -32
169 -53 l58 -21 -6 -85 c-4 -47 -11 -133 -15 -191 -5 -58 -14 -168 -20 -245
-6 -77 -15 -178 -21 -225 -5 -47 -14 -152 -21 -235 -6 -82 -17 -208 -26 -280
-8 -71 -17 -159 -19 -195 -9 -141 -35 -453 -49 -600 -8 -85 -22 -238 -31 -340
-16 -183 -21 -239 -44 -480 -16 -171 -15 -167 -70 -221 -26 -27 -62 -71 -79
-97 -34 -53 -42 -95 -16 -86 8 4 15 12 15 20 0 8 4 14 8 14 12 0 41 27 75 68
23 28 28 31 33 17 7 -17 -9 -252 -26 -400 -5 -44 -16 -161 -25 -260 -9 -99
-21 -214 -27 -255 -6 -41 -12 -100 -13 -130 -1 -30 -7 -98 -13 -150 -6 -52
-12 -123 -12 -157 0 -34 -4 -65 -10 -68 -5 -3 -10 -43 -11 -88 0 -45 -4 -91
-9 -102 -6 -13 -9 18 -9 87 -1 73 3 108 11 110 6 2 8 10 4 16 -13 22 -26 13
-26 -18 0 -31 -19 -43 -21 -12 -1 16 -2 16 -6 0 -6 -24 -83 -26 -83 -3 0 11
-11 15 -40 15 l-40 0 0 40 0 40 -40 0 -40 0 0 -40 c0 -29 -4 -40 -15 -40 -11
0 -15 11 -15 40 0 36 -2 40 -25 40 -16 0 -25 6 -25 15 0 11 -11 15 -40 15 -38
0 -40 2 -40 31 0 21 -9 38 -29 55 -25 21 -29 30 -24 59 6 39 -3 85 -17 85 -6
0 -10 -15 -10 -32 l-1 -33 -18 23 c-11 12 -29 22 -40 22 -12 0 -21 6 -21 15 0
8 -11 25 -25 39 -18 19 -25 36 -25 66 0 22 -4 40 -10 40 -5 0 -10 18 -10 40 0
29 -4 40 -15 40 -11 0 -15 -11 -15 -40 0 -28 -4 -40 -14 -40 -11 0 -16 14 -18
48 l-3 47 -45 6 c-56 7 -100 25 -100 40 0 21 -34 38 -77 39 -71 0 -92 20 -57
54 14 15 13 18 -16 42 -19 17 -29 32 -25 42 9 25 -24 52 -67 52 -27 0 -38 4
-38 15 0 8 -4 15 -9 15 -12 0 -71 59 -71 70 0 5 5 10 11 12 15 5 -7 106 -28
126 -9 9 -13 42 -13 108 0 113 1 113 108 49 69 -42 112 -56 112 -37 0 21 -34
50 -87 76 -34 17 -74 48 -96 73 -37 44 -37 46 -32 111 8 104 15 132 34 132 22
0 38 28 47 85 6 46 5 49 -27 76 l-34 28 3 238 c2 190 6 245 18 271 10 22 15
60 15 110 -1 42 1 122 3 177 l5 100 -14 -87 c-7 -48 -19 -94 -27 -101 -10 -11
-17 -71 -27 -228 -12 -210 -20 -276 -43 -352 l-12 -38 -10 33 c-9 27 -16 33
-41 34 -17 0 -40 6 -53 13 -24 13 -65 0 -43 -13 23 -14 11 -36 -19 -36 -30 0
-40 13 -20 25 6 4 8 11 4 16 -4 6 -11 6 -19 -1 -10 -8 -24 -8 -52 -1 -51 14
-50 14 -68 -12 -14 -21 -14 -28 -1 -59 18 -42 53 -59 114 -56 31 2 46 -2 53
-13 4 -9 28 -23 51 -32 27 -11 52 -30 67 -52 22 -33 24 -43 22 -163 -1 -70 -6
-154 -12 -187 -5 -33 -14 -98 -19 -145 -15 -127 -18 -134 -35 -116 -8 8 -15
23 -15 33 0 10 -4 24 -9 31 -6 10 -10 6 -15 -15 -7 -27 -8 -27 -22 -9 -8 11
-14 27 -14 36 0 19 -86 113 -113 123 -15 6 -16 15 -11 64 4 32 8 60 10 62 2 2
28 6 58 9 49 4 57 2 79 -22 13 -14 30 -26 36 -26 6 0 15 -10 20 -21 7 -20 8
-20 21 10 14 34 6 62 -29 104 -12 15 -12 19 4 37 18 20 17 20 -31 22 -27 0
-61 0 -76 -1 -15 -1 -42 2 -61 7 -31 9 -67 -3 -67 -21 0 -22 -38 -47 -72 -47
-32 0 -38 3 -38 22 0 24 -27 58 -46 58 -29 0 -48 83 -21 93 7 3 -10 26 -44 58
-30 30 -61 69 -68 87 -9 20 -20 32 -32 32 -17 0 -19 10 -20 113 -1 61 -2 126
-3 142 -1 17 -3 86 -5 155 -3 116 -4 121 -13 70 -46 -270 -46 -266 -53 -233
-12 51 -30 59 -48 22 -14 -30 -15 -30 -22 -10 -5 18 -12 53 -14 84 -1 4 -5 7
-9 7 -5 0 -14 -30 -20 -67 -10 -65 -10 -63 -6 47 2 63 9 277 14 475 12 440 25
819 39 1065 5 102 15 322 21 490 6 168 15 341 20 385 5 44 12 200 16 348 4
147 10 270 15 273 5 3 7 10 3 15 -11 18 5 42 24 34 9 -4 46 -11 81 -16z m-190
-151 c0 -28 -2 -30 -9 -13 -12 28 -12 45 0 45 6 0 10 -15 9 -32z m-5231 -24
c-11 -23 -13 -24 -19 -7 -7 20 8 46 22 38 4 -3 3 -17 -3 -31z m5228 -116 c-3
-50 -6 -114 -6 -142 0 -27 -3 -46 -8 -40 -12 14 -2 274 10 274 8 0 9 -29 4
-92z m774 21 c0 -38 -24 -35 -28 4 -2 19 1 27 12 27 11 0 16 -10 16 -31z m-20
-114 c0 -29 4 -55 8 -57 12 -4 23 -78 11 -78 -5 0 -9 7 -9 15 0 7 -6 18 -13
22 -18 10 -27 69 -20 122 8 57 23 41 23 -24z m72 -133 c-7 -2 -12 -14 -12 -27
0 -29 -19 -43 -31 -24 -14 23 -10 41 11 46 11 3 20 10 20 15 0 5 5 6 12 2 9
-6 9 -9 0 -12z m-834 -112 c-4 -19 -8 -102 -8 -185 -1 -82 -6 -192 -11 -243
-5 -51 -12 -197 -15 -325 -4 -128 -8 -234 -10 -236 -4 -5 -8 581 -4 644 1 22
5 45 8 50 4 6 7 73 8 149 1 77 8 167 16 200 l13 61 5 -40 c3 -22 2 -56 -2 -75z
m3334 -30 c7 -11 21 -20 30 -20 13 0 18 -8 18 -25 0 -22 4 -25 40 -25 l40 0 0
-55 0 -55 40 0 40 0 0 40 c0 29 4 40 15 40 11 0 15 -11 15 -40 0 -22 5 -40 10
-40 6 0 10 -47 10 -120 0 -100 3 -120 15 -120 12 0 15 -16 15 -80 l0 -80 -80
0 -80 0 0 -40 0 -40 -40 0 -40 0 0 -105 0 -105 41 0 40 0 -3 -52 -3 -53 -37
-3 -38 -3 0 -79 0 -79 38 -3 37 -3 3 -77 3 -78 39 0 c40 0 40 0 40 40 0 29 4
40 15 40 12 0 15 -16 15 -80 l0 -80 -30 0 c-28 0 -30 -2 -30 -40 0 -22 5 -40
10 -40 6 0 11 -19 11 -42 2 -30 3 -35 6 -15 4 24 8 27 44 27 l39 0 0 -63 0
-63 48 -1 c26 0 62 -1 80 -2 l32 -1 0 -160 c0 -136 2 -160 15 -160 13 0 15
-20 15 -120 0 -100 -2 -120 -15 -120 -11 0 -15 11 -15 39 0 39 0 39 -43 42
-38 4 -43 2 -39 -13 4 -15 -3 -18 -37 -18 -37 0 -41 -2 -41 -25 0 -18 -5 -25
-20 -25 -11 0 -20 -4 -20 -9 0 -4 9 -20 20 -34 13 -17 20 -40 20 -71 l0 -46
80 0 80 0 0 -80 c0 -64 -3 -80 -15 -80 -11 0 -15 -11 -15 -39 0 -23 -5 -41
-12 -44 -9 -3 -8 -10 6 -26 25 -28 36 -27 36 4 0 25 1 25 80 25 l80 0 0 -255
0 -255 40 0 c33 0 40 -3 40 -20 0 -17 -7 -20 -42 -21 -26 -1 -34 -4 -19 -6 23
-5 23 -7 17 -64 -3 -32 -3 -86 1 -118 5 -50 9 -61 27 -65 11 -3 -5 -3 -36 -1
l-58 4 0 -40 c0 -28 4 -39 15 -39 9 0 15 -9 15 -25 0 -22 4 -25 40 -25 29 0
40 -4 40 -15 0 -9 -9 -15 -24 -15 -13 0 -31 -3 -40 -6 -21 -8 -20 -34 1 -34
15 0 15 -2 -3 -18 -31 -29 -97 -46 -123 -33 -18 10 -21 9 -21 -8 0 -23 -18
-37 -41 -33 -9 2 -29 -14 -45 -35 -15 -21 -35 -43 -43 -49 -13 -10 -12 -15 6
-38 l21 -27 21 30 c25 35 64 46 103 30 33 -14 37 -44 6 -52 -18 -5 -19 -8 -8
-22 10 -12 28 -16 69 -15 31 1 61 2 66 1 6 -1 9 -88 7 -246 -2 -207 -5 -245
-17 -245 -11 0 -15 -12 -15 -40 l0 -40 44 0 45 0 -5 -200 -5 -200 77 0 c61 0
79 4 90 18 12 15 15 15 24 2 7 -11 5 -16 -5 -18 -23 -5 -29 -47 -15 -105 6
-29 14 -71 17 -94 4 -37 8 -43 29 -43 21 0 24 -5 24 -34 0 -19 5 -47 11 -63 6
-15 12 -52 15 -81 3 -38 10 -60 28 -79 28 -30 25 -33 50 59 9 31 16 72 16 91
0 39 15 56 33 38 6 -6 28 -11 49 -11 36 0 38 -1 38 -34 0 -33 1 -34 48 -38 36
-4 54 -12 80 -37 18 -18 31 -40 30 -49 -2 -13 7 -18 40 -20 39 -3 42 -5 42
-33 0 -27 2 -29 40 -29 l40 0 0 -40 c0 -39 1 -40 37 -40 29 0 44 -8 75 -40 28
-29 48 -40 69 -40 27 0 29 -2 29 -40 0 -22 5 -40 10 -40 13 0 80 -60 80 -72 0
-4 -13 -8 -30 -8 -37 0 -37 -5 -3 -34 26 -23 27 -26 24 -114 l-3 -91 56 6 c37
4 56 2 56 -5 0 -6 -19 -12 -42 -14 -35 -2 -42 -6 -40 -20 3 -20 -32 -26 -43
-8 -3 6 -18 10 -33 10 -24 0 -93 15 -292 65 -36 9 -94 23 -130 32 -36 8 -81
18 -100 23 -231 57 -302 73 -340 79 -25 4 -52 11 -60 16 -8 5 -32 12 -55 16
-22 4 -50 10 -62 14 -15 5 -23 3 -23 -4 0 -6 11 -11 24 -11 13 0 26 -7 30 -15
3 -8 15 -15 26 -15 12 0 34 -7 51 -15 16 -9 35 -15 42 -14 30 4 41 -3 19 -11
-13 -6 -32 -6 -48 0 -37 14 -71 12 -78 -5 -7 -18 -43 -20 -49 -2 -2 6 -8 8
-13 4 -4 -4 -3 -17 4 -27 11 -17 10 -20 -8 -20 -11 0 -20 -7 -20 -15 0 -9 -13
-29 -30 -45 -35 -35 -43 -95 -12 -103 9 -3 -4 -5 -29 -6 -28 -1 -52 -7 -59
-16 -7 -9 -21 -13 -31 -10 -14 5 -20 0 -25 -19 -3 -14 -10 -26 -15 -26 -5 0
-12 -8 -16 -17 -3 -10 -11 -25 -18 -33 -6 -8 -17 -34 -24 -58 -6 -23 -16 -40
-20 -37 -5 2 -21 -11 -35 -30 -15 -19 -32 -35 -38 -35 -15 0 -88 -80 -88 -96
0 -8 -9 -14 -19 -14 -14 0 -18 -5 -14 -20 3 -11 12 -20 19 -20 8 0 14 -4 14
-10 0 -5 -9 -10 -20 -10 -11 0 -20 -4 -20 -10 0 -5 -9 -10 -20 -10 -13 0 -20
-7 -20 -18 0 -10 -13 -29 -30 -42 -22 -19 -29 -33 -30 -62 0 -21 -4 -38 -10
-38 -5 0 -10 7 -10 15 0 11 -5 13 -14 8 -21 -12 -108 -97 -136 -133 -14 -18
-40 -48 -57 -66 -18 -19 -33 -41 -33 -49 0 -8 -4 -15 -9 -15 -12 0 -71 -59
-71 -71 0 -5 -6 -9 -12 -9 -23 -1 -68 -48 -62 -64 3 -9 1 -16 -5 -16 -6 0 -11
7 -11 15 0 10 -11 15 -35 15 -32 0 -35 -2 -35 -30 0 -23 -4 -30 -20 -30 -11 0
-23 -8 -26 -17 -3 -10 -11 -31 -19 -48 -8 -16 -16 -39 -18 -50 -3 -11 -5 29
-6 89 -1 95 -3 107 -16 96 -10 -8 -15 -31 -15 -66 0 -47 -2 -54 -20 -54 -14 0
-20 7 -22 23 -2 37 3 81 12 92 8 10 12 33 29 150 5 33 19 103 31 155 12 52 28
136 37 185 19 118 29 171 42 220 5 22 15 78 22 125 7 47 15 87 18 90 4 3 14
56 23 118 12 86 13 119 5 142 -10 25 -8 32 10 52 12 13 25 37 29 53 4 17 15
48 25 70 10 22 19 55 19 73 0 17 4 32 8 32 4 0 9 21 10 48 1 26 4 61 7 77 2
17 2 24 -1 18 -3 -7 -10 -13 -15 -13 -15 0 -10 41 10 74 10 17 24 48 31 68 6
21 21 46 33 56 12 10 27 27 33 37 8 15 22 20 52 20 43 0 64 11 39 20 -13 6
-13 10 -1 33 8 15 14 37 14 50 0 12 9 31 21 43 14 14 22 38 26 77 3 40 2 53
-5 43 -8 -11 -12 -6 -17 23 -10 48 -1 55 35 27 l30 -22 0 31 c0 27 -3 30 -33
30 -33 0 -34 1 -46 58 -7 31 -14 75 -16 97 -2 22 -11 45 -20 51 -14 10 -14 18
-4 60 7 27 15 51 19 54 8 5 21 64 21 95 0 11 7 27 16 37 12 14 15 31 10 77 -4
48 -1 68 15 100 11 23 26 41 32 41 7 0 19 11 26 25 9 17 22 25 40 25 23 0 29
6 35 33 5 22 9 26 12 15 6 -25 18 -22 41 7 11 14 25 25 31 25 6 0 11 17 11 38
0 33 4 39 40 56 30 14 40 25 40 43 0 12 5 23 12 23 18 0 0 13 -22 17 -12 2
-20 -3 -20 -12 0 -21 -37 -37 -69 -30 -31 7 -45 -5 -55 -48 -16 -67 -86 -188
-86 -148 0 6 -17 11 -40 11 -33 0 -40 -3 -40 -20 0 -17 -4 -19 -26 -14 -21 5
-31 1 -50 -21 -13 -16 -24 -34 -24 -41 0 -7 -9 -19 -21 -27 -15 -11 -22 -29
-26 -73 -2 -33 -11 -73 -19 -91 -8 -17 -14 -38 -14 -47 0 -9 -8 -16 -18 -16
-20 0 -30 -17 -57 -98 -14 -42 -16 -70 -10 -145 4 -50 12 -98 19 -106 8 -12 8
-13 -2 -7 -16 10 -72 -12 -72 -28 0 -7 -28 -25 -62 -40 -63 -29 -98 -56 -98
-76 0 -5 -18 -10 -40 -10 -29 0 -40 4 -40 15 0 8 7 15 15 15 11 0 15 11 15 40
l0 40 -40 0 -40 0 0 -40 c0 -38 -2 -40 -30 -40 -28 0 -30 2 -30 40 0 36 -2 40
-25 40 -22 0 -25 4 -25 35 0 34 -1 35 -42 36 -30 2 -35 3 -15 6 24 4 27 8 27
44 0 37 2 39 30 39 28 0 30 2 30 40 l0 40 -55 0 -55 0 -1 73 c0 39 -4 96 -8
125 -11 79 5 720 18 736 6 7 8 21 5 30 -4 9 -1 59 6 112 6 52 13 189 15 305 2
172 5 213 18 227 8 9 18 33 22 53 4 23 21 51 46 75 21 22 38 44 39 49 0 6 9
18 20 28 11 9 20 24 20 32 0 17 16 21 22 5 2 -6 19 -5 47 2 37 10 45 9 53 -5
5 -10 18 -17 30 -17 28 0 47 -28 48 -67 0 -17 5 -35 10 -38 6 -3 10 -14 10
-25 0 -21 26 -34 36 -18 4 6 6 41 4 77 -8 150 0 234 25 282 13 25 26 62 30 81
5 24 14 38 26 41 10 3 19 12 19 20 0 9 16 21 38 28 20 6 40 17 44 22 3 6 31
11 61 11 49 1 60 5 97 39 31 28 52 38 78 39 40 2 122 51 122 73 0 22 -43 45
-86 47 -67 2 -146 -18 -163 -41 -9 -12 -32 -26 -51 -31 -45 -13 -51 -18 -73
-60 -10 -19 -33 -45 -52 -58 -19 -12 -35 -29 -35 -37 0 -10 -10 -15 -29 -15
-17 0 -33 -4 -36 -10 -3 -5 -15 -10 -25 -10 -10 0 -20 -4 -22 -9 -1 -4 -37
-24 -79 -44 -55 -26 -78 -43 -83 -59 -7 -25 -90 -83 -105 -73 -5 3 -21 -6 -35
-20 -14 -14 -30 -25 -36 -25 -10 0 -8 72 4 145 3 17 10 100 15 185 5 85 17
220 25 300 9 80 18 199 21 265 9 191 9 192 86 176 75 -15 143 -33 159 -42 64
-37 76 -40 178 -44 106 -3 238 -27 256 -45 6 -6 18 -10 28 -10 14 0 18 8 18
36 0 22 -4 33 -10 29 -6 -4 -34 2 -63 13 -97 37 -122 44 -192 58 -38 7 -136
20 -218 28 -157 16 -182 24 -192 57 -9 28 5 247 18 279 5 14 11 66 14 115 2
50 8 103 13 119 6 16 10 40 10 53 0 13 6 34 12 46 15 26 35 193 44 370 l7 127
38 0 38 0 -6 53 c-3 28 -10 55 -15 58 -14 9 23 79 41 79 9 0 22 9 29 20 7 11
17 20 22 20 6 0 10 -9 10 -20 0 -17 7 -20 40 -20 l40 0 0 80 0 80 40 0 c29 0
40 -4 40 -15 0 -11 11 -15 40 -15 29 0 40 -4 40 -15 0 -8 4 -15 8 -15 14 0 72
68 72 85 0 21 18 19 32 -5z m-8798 -124 c5 -76 4 -106 -3 -101 -7 4 -11 47
-11 112 0 59 2 104 4 102 2 -2 7 -53 10 -113z m-264 14 c0 -5 -4 -10 -10 -10
-5 0 -10 5 -10 10 0 6 5 10 10 10 6 0 10 -4 10 -10z m679 -69 c-3 -6 -10 -7
-18 -2 -7 5 -10 14 -6 21 9 14 29 -2 24 -19z m-692 -3 c-3 -8 -6 -5 -6 6 -1
11 2 17 5 13 3 -3 4 -12 1 -19z m713 -148 c0 -5 -4 -10 -10 -10 -5 0 -10 5
-10 10 0 6 5 10 10 10 6 0 10 -4 10 -10z m111 -102 c-5 -14 -7 -29 -4 -32 4
-3 1 -6 -5 -6 -13 0 -15 22 -6 58 4 14 10 20 16 14 5 -5 5 -19 -1 -34z m34
-219 c3 -153 1 -238 -5 -228 -5 8 -10 114 -11 235 -1 240 -1 249 6 243 2 -3 7
-115 10 -250z m-1015 164 c0 -7 -4 -13 -10 -13 -5 0 -10 -9 -10 -20 0 -11 -4
-20 -10 -20 -5 0 -10 20 -10 45 0 43 1 44 20 33 11 -7 20 -18 20 -25z m1173
-96 c6 -46 -2 -157 -12 -157 -3 0 -7 48 -9 106 -2 104 10 134 21 51z m8513
-234 c-4 -8 -21 -12 -48 -11 l-43 1 43 4 42 4 2 122 2 122 3 -114 c2 -63 1
-121 -1 -128z m-9752 92 c-4 -8 -8 -15 -10 -15 -2 0 -4 7 -4 15 0 8 4 15 10
15 5 0 7 -7 4 -15z m-2840 -58 c5 -20 13 -37 18 -37 4 0 8 -18 8 -40 0 -29 -4
-40 -15 -40 -11 0 -15 -11 -15 -40 0 -29 4 -40 15 -40 11 0 15 -11 15 -40 l0
-40 -79 0 c-55 0 -81 -4 -84 -12 -2 -7 -3 -4 -1 7 2 11 4 35 4 54 0 33 1 33
40 29 l40 -4 0 103 c0 101 12 147 35 140 5 -2 14 -20 19 -40z m86 -17 c0 -19
-20 -27 -33 -13 -8 7 11 33 24 33 5 0 9 -9 9 -20z m2740 -85 c0 -8 -4 -15 -10
-15 -5 0 -7 7 -4 15 4 8 8 15 10 15 2 0 4 -7 4 -15z m-10 -65 c0 -33 -6 -36
-32 -16 -30 22 -21 38 25 45 4 0 7 -12 7 -29z m1279 -72 c-1 -37 -2 -39 -9
-18 -12 36 -12 60 0 60 6 0 10 -19 9 -42z m4653 -225 c-2 -123 -8 -223 -13
-223 -10 0 -11 406 -2 460 14 76 19 -17 15 -237z m-4802 185 c0 -23 -3 -29 -9
-19 -8 12 -4 51 5 51 2 0 4 -15 4 -32z m-3828 -32 c-9 -18 -11 -16 -11 19 0
33 1 37 10 21 8 -12 8 -25 1 -40z m2698 -50 c0 -3 -4 -8 -10 -11 -5 -3 -10 -1
-10 4 0 6 5 11 10 11 6 0 10 -2 10 -4z m-2675 -115 c3 -5 1 -12 -5 -16 -5 -3
-10 1 -10 9 0 18 6 21 15 7z m2685 -31 c0 -5 -7 -10 -15 -10 -8 0 -15 5 -15
10 0 6 7 10 15 10 8 0 15 -4 15 -10z m-2990 -17 c0 -10 -32 -43 -42 -43 -4 0
-8 11 -8 25 0 20 5 25 25 25 14 0 25 -3 25 -7z m5422 -83 c-2 -17 -8 -30 -13
-30 -9 0 -10 57 -1 74 9 16 18 -15 14 -44z m7260 -17 c-7 -65 -12 -67 -12 -5
0 29 4 52 9 52 5 0 6 -21 3 -47z m-8452 -33 c4 -3 4 -25 1 -50 l-7 -45 -7 34
c-4 18 -6 54 -6 80 2 34 3 38 6 16 3 -16 8 -32 13 -35z m-3 -222 c-2 -24 -4
-5 -4 42 0 47 2 66 4 43 2 -24 2 -62 0 -85z m-100 20 c-3 -7 -5 -2 -5 12 0 14
2 19 5 13 2 -7 2 -19 0 -25z m4762 -75 c0 -76 -3 -92 -10 -73 -9 22 -3 170 7
170 2 0 4 -44 3 -97z m3948 -25 c-2 -24 -4 -5 -4 42 0 47 2 66 4 43 2 -24 2
-62 0 -85z m-7420 86 c-3 -3 -12 -4 -19 -1 -8 3 -5 6 6 6 11 1 17 -2 13 -5z
m-2230 -66 c-3 -8 -6 -5 -6 6 -1 11 2 17 5 13 3 -3 4 -12 1 -19z m5696 -128
c3 -11 1 -18 -4 -14 -5 3 -9 12 -9 20 0 20 7 17 13 -6z m-8288 -10 c-4 -6 37
-10 117 -9 78 0 116 4 103 9 -13 6 13 9 77 9 66 1 98 -3 100 -11 3 -9 11 -9
34 0 18 7 54 9 94 5 106 -10 524 -16 1373 -22 126 -1 163 -9 120 -26 -16 -6
-380 -20 -413 -16 -8 1 -409 4 -890 6 -481 3 -894 8 -917 11 -51 6 -58 30 -10
37 17 3 70 6 117 7 47 1 87 3 89 6 8 8 12 4 6 -6z m888 3 c-18 -2 -48 -2 -65
0 -18 2 -4 4 32 4 36 0 50 -2 33 -4z m1187 -33 c0 -5 -5 -10 -11 -10 -5 0 -7
5 -4 10 3 6 8 10 11 10 2 0 4 -4 4 -10z m3210 -10 c-27 -17 -3 -21 41 -6 66
22 232 15 177 -7 -8 -3 -6 -6 5 -6 9 -1 17 6 17 14 0 18 36 20 43 3 4 -10 8
-10 15 1 8 11 12 10 20 -5 7 -14 7 -24 -3 -37 -15 -21 -31 -22 -43 -1 -6 11
-14 14 -23 8 -19 -12 -259 -15 -259 -3 0 5 -5 9 -11 9 -5 0 -7 -4 -4 -10 3 -5
-3 -10 -14 -10 -11 0 -25 8 -30 18 -9 14 -12 15 -20 3 -6 -9 -18 -12 -37 -7
-28 6 -75 7 -247 2 -63 -2 -77 0 -75 12 2 11 41 15 212 18 114 2 211 6 214 9
3 3 12 5 21 5 14 0 14 -2 1 -10z m366 -1 c10 -17 -13 -36 -27 -22 -12 12 -4
33 11 33 5 0 12 -5 16 -11z m-3371 -9 c-8 -13 -55 -13 -75 0 -11 7 -2 10 33
10 30 0 46 -4 42 -10z m3499 -10 c4 -5 -1 -13 -12 -19 -13 -7 -23 -7 -27 -1
-3 5 -11 7 -18 5 -7 -2 -24 -6 -38 -9 -23 -5 -26 -3 -22 18 4 21 9 23 56 18
29 -2 56 -8 61 -12z m61 10 c-3 -5 -11 -10 -16 -10 -6 0 -7 5 -4 10 3 6 11 10
16 10 6 0 7 -4 4 -10z m-3472 -7 c-7 -2 -19 -2 -25 0 -7 3 -2 5 12 5 14 0 19
-2 13 -5z m3917 -3 c0 -5 -4 -10 -9 -10 -5 0 -16 -3 -25 -6 -11 -4 -16 -1 -16
10 0 10 9 16 25 16 14 0 25 -4 25 -10z m-367 -11 c-60 -21 -83 -26 -83 -20 0
18 26 30 62 28 26 -1 33 -4 21 -8z m6324 -331 c-1 -46 -3 -9 -3 82 0 91 2 128
3 83 2 -46 2 -120 0 -165z m2310 -20 c-3 -8 -6 -5 -6 6 -1 11 2 17 5 13 3 -3
4 -12 1 -19z m-2230 -180 c-2 -24 -4 -5 -4 42 0 47 2 66 4 43 2 -24 2 -62 0
-85z m-4546 -110 c43 -12 51 -38 24 -74 -8 -10 -15 -31 -15 -45 0 -24 -4 -26
-46 -28 -26 0 -51 -4 -58 -8 -11 -8 -64 -11 -666 -37 -201 -8 -381 -18 -400
-22 -19 -3 -127 -10 -240 -14 -113 -4 -214 -11 -225 -14 -15 -6 -33 6 -75 48
-31 30 -71 63 -90 73 -19 11 -36 27 -38 35 -4 23 27 31 54 13 29 -19 50 -19
58 0 3 8 12 12 20 9 8 -3 64 -1 123 5 59 6 234 13 387 16 154 3 283 8 289 12
5 3 45 7 90 9 45 2 172 8 282 13 110 6 251 8 313 5 78 -4 112 -3 112 5 0 14
53 14 101 -1z m1149 -87 c0 -11 -4 -22 -9 -25 -11 -7 -20 14 -13 32 7 19 22
14 22 -7z m5516 -38 c-11 -11 -17 4 -9 23 7 18 8 18 11 1 2 -10 1 -21 -2 -24z
m-6 -93 c0 -5 -4 -10 -10 -10 -5 0 -10 5 -10 10 0 6 5 10 10 10 6 0 10 -4 10
-10z m-40 -108 c-3 -1 -4 -29 -2 -62 4 -56 3 -60 -17 -60 -26 0 -26 13 -4 105
14 56 18 65 23 45 4 -14 3 -26 0 -28z m-35 -201 c-5 -33 -3 -40 11 -43 16 -3
17 -4 1 -20 -9 -9 -17 -23 -17 -32 0 -24 -32 -86 -42 -80 -25 16 2 104 33 104
5 0 9 7 9 15 0 8 -4 15 -10 15 -5 0 -10 18 -10 40 0 30 4 40 16 40 13 0 15 -7
9 -39z m648 -78 c3 -5 1 -17 -3 -28 -6 -17 -7 -16 -12 8 -5 25 5 37 15 20z
m-613 -55 c0 -29 -4 -48 -8 -41 -7 12 -4 93 4 93 2 0 4 -24 4 -52z m607 -30
c-3 -8 -6 -5 -6 6 -1 11 2 17 5 13 3 -3 4 -12 1 -19z m-667 -94 c0 -19 -5 -24
-25 -24 -27 0 -31 10 -15 40 14 25 40 15 40 -16z m646 -21 c-10 -10 -19 5 -10
18 6 11 8 11 12 0 2 -7 1 -15 -2 -18z m-688 -57 c2 -32 -3 -57 -15 -79 -14
-23 -17 -42 -12 -69 5 -35 4 -38 -19 -38 -23 0 -24 2 -17 37 4 21 10 40 15 43
4 3 11 40 15 83 8 87 28 101 33 23z m672 -33 c0 -19 -3 -24 -10 -17 -6 6 -8
18 -4 27 9 24 14 21 14 -10z m-600 -33 c0 -29 -4 -40 -15 -40 -11 0 -15 -11
-15 -40 0 -22 -4 -40 -10 -40 -6 0 -10 33 -10 80 0 79 0 80 25 80 23 0 25 -4
25 -40z m550 30 c0 -5 -4 -10 -10 -10 -5 0 -10 5 -10 10 0 6 5 10 10 10 6 0
10 -4 10 -10z m20 -102 c-7 -19 -9 -15 -9 22 0 37 2 41 9 23 6 -14 6 -32 0
-45z m-44 -56 c-10 -11 -16 -12 -16 -4 0 7 5 12 10 12 6 0 11 10 11 23 1 18 2
19 6 3 3 -10 -2 -26 -11 -34z m-336 -187 l0 -205 -50 0 -50 0 0 160 c0 100 4
160 10 160 6 0 10 18 10 39 0 40 0 40 -42 44 -24 2 -6 4 40 5 l82 2 0 -205z
m-9882 -125 c0 -157 -3 -227 -8 -195 -11 65 -10 534 0 480 4 -22 8 -150 8
-285z m10142 316 c0 -3 -4 -8 -10 -11 -5 -3 -10 -1 -10 4 0 6 5 11 10 11 6 0
10 -2 10 -4z m97 -53 c-3 -10 -5 -4 -5 12 0 17 2 24 5 18 2 -7 2 -21 0 -30z
m-57 -3 c0 -13 -7 -20 -20 -20 -18 0 -19 3 -10 20 6 11 15 20 20 20 6 0 10 -9
10 -20z m-2373 -12 c-3 -8 -6 -5 -6 6 -1 11 2 17 5 13 3 -3 4 -12 1 -19z
m1753 -12 c0 -13 -7 -29 -15 -36 -13 -11 -15 -7 -15 22 0 19 3 38 6 41 12 11
24 -3 24 -27z m-1802 -1 c3 -3 -3 -21 -14 -41 -14 -26 -20 -31 -22 -17 -6 34
-25 62 -46 66 -12 2 1 2 28 1 27 -2 51 -6 54 -9z m-118 -15 c0 -13 7 -20 20
-20 29 0 38 -30 15 -46 -26 -19 -35 -17 -35 6 0 17 -7 20 -40 20 -22 0 -40 5
-40 10 0 6 7 10 15 10 8 0 20 9 27 20 7 11 18 20 25 20 7 0 13 -9 13 -20z
m2576 -58 c-11 -10 -15 4 -8 28 l7 25 3 -23 c2 -13 1 -26 -2 -30z m-659 -24
c-3 -8 -6 -5 -6 6 -1 11 2 17 5 13 3 -3 4 -12 1 -19z m590 -40 c-2 -13 -4 -3
-4 22 0 25 2 35 4 23 2 -13 2 -33 0 -45z m73 38 c0 -3 -4 -8 -10 -11 -5 -3
-10 -1 -10 4 0 6 5 11 10 11 6 0 10 -2 10 -4z m-698 -55 c-7 -4 -9 -21 -5 -44
4 -27 10 -37 24 -37 25 0 24 -16 0 -30 -34 -18 -61 -12 -62 13 -2 39 2 71 11
92 4 11 11 29 15 40 7 19 8 19 18 -3 8 -17 8 -25 -1 -31z m-1774 27 c18 -18
15 -28 -8 -28 -13 0 -20 7 -20 20 0 23 10 26 28 8z m1809 -75 c-3 -10 -5 -2
-5 17 0 19 2 27 5 18 2 -10 2 -26 0 -35z m570 -25 c-3 -8 -6 -5 -6 6 -1 11 2
17 5 13 3 -3 4 -12 1 -19z m-2264 -5 c-13 -2 -33 -2 -45 0 -13 2 -3 4 22 4 25
0 35 -2 23 -4z m1604 -103 c-4 -37 -3 -60 3 -60 6 0 10 -18 10 -40 0 -22 -4
-40 -10 -40 -5 0 -10 18 -10 40 0 22 -5 40 -11 40 -9 0 -5 70 6 108 11 33 17
6 12 -48z m666 18 c3 -21 2 -38 -4 -38 -5 0 -9 19 -9 42 0 49 5 47 13 -4z
m-2239 -111 c2 -69 2 -128 -1 -130 -2 -3 -13 -3 -24 0 -15 4 -19 14 -19 44 0
28 4 39 15 39 12 0 15 17 15 92 0 133 10 102 14 -45z m1650 52 c11 -111 8
-179 -9 -179 -12 0 -15 16 -15 80 0 47 -4 80 -10 80 -5 0 -10 18 -10 40 0 32
4 40 19 40 15 0 19 -11 25 -61z m-4464 -54 c0 -9 -6 -12 -15 -9 -8 4 -12 10
-9 15 8 14 24 10 24 -6z m73 -52 c-7 -2 -19 -2 -25 0 -7 3 -2 5 12 5 14 0 19
-2 13 -5z m4325 -51 c2 -12 7 -22 12 -22 11 0 70 -59 70 -71 0 -5 18 -9 40 -9
l40 0 0 -240 c0 -207 -2 -240 -15 -240 -11 0 -15 -11 -15 -40 0 -29 4 -40 15
-40 11 0 15 -11 15 -39 l0 -40 -47 -3 -48 -3 -3 -77 -3 -78 -29 0 -30 0 0 -80
0 -80 -40 0 -40 0 0 -80 0 -80 39 0 c40 0 40 0 44 43 2 23 4 -4 5 -60 l2 -103
-45 0 -45 0 0 45 c0 51 -10 56 -38 20 -17 -21 -28 -25 -71 -25 l-51 0 -6 39
c-8 50 -34 46 -34 -5 0 -26 -4 -34 -18 -34 -20 0 -42 -65 -42 -125 0 -28 -4
-35 -20 -35 -17 0 -20 7 -20 40 0 23 6 53 14 69 9 16 14 51 13 87 -1 38 4 71
15 94 10 19 22 67 28 105 7 39 20 99 30 135 10 36 21 83 25 104 6 46 10 64 35
171 10 44 23 103 30 130 6 28 17 84 25 125 14 82 23 110 35 110 4 0 10 23 13
51 10 81 24 82 33 2 5 -38 3 -53 -10 -65 -28 -29 -18 -38 39 -38 l55 0 0 40
c0 36 3 40 25 40 23 0 25 4 25 40 0 40 0 40 -39 40 -32 0 -40 4 -45 23 l-6 22
-18 -21 c-17 -20 -19 -20 -28 -5 -5 9 -8 44 -6 79 3 52 7 62 22 62 11 0 20 10
24 26 8 31 40 29 44 -4z m305 -19 c-13 -2 -33 -2 -45 0 -13 2 -3 4 22 4 25 0
35 -2 23 -4z m314 -50 c-3 -10 -5 -2 -5 17 0 19 2 27 5 18 2 -10 2 -26 0 -35z
m-4777 -43 c0 -5 -4 -10 -9 -10 -6 0 -13 5 -16 10 -3 6 1 10 9 10 9 0 16 -4
16 -10z m2500 0 c0 -5 -4 -10 -10 -10 -5 0 -10 5 -10 10 0 6 5 10 10 10 6 0
10 -4 10 -10z m1980 -70 c0 -64 -3 -80 -15 -80 -12 0 -15 16 -15 80 0 64 3 80
15 80 12 0 15 -16 15 -80z m266 -15 c-4 -25 -11 -43 -16 -40 -8 5 -5 48 6 84
9 30 16 0 10 -44z m-111 -143 c-13 -14 -16 13 -8 85 l8 78 3 -79 c2 -43 0 -81
-3 -84z m45 92 c0 -8 -7 -14 -15 -14 -17 0 -18 2 -9 24 7 18 24 12 24 -10z
m40 -60 c0 -49 -2 -55 -15 -44 -9 7 -15 29 -15 50 0 32 6 42 28 49 1 1 2 -24
2 -55z m-10023 -156 c-2 -24 -4 -5 -4 42 0 47 2 66 4 43 2 -24 2 -62 0 -85z
m9992 75 c-1 -28 -4 -37 -6 -23 -3 14 -9 29 -14 35 -14 14 -11 35 6 35 11 0
15 -11 14 -47z m-29 -26 c0 -18 -5 -39 -10 -47 -7 -11 -10 0 -10 38 0 33 4 51
10 47 6 -3 10 -21 10 -38z m-3150 -71 c0 -8 -7 -22 -16 -30 -18 -18 -17 -18
-38 -10 -20 8 -21 24 -2 24 8 0 16 7 20 15 7 19 36 20 36 1z m1033 -13 c-13
-2 -33 -2 -45 0 -13 2 -3 4 22 4 25 0 35 -2 23 -4z m-2030 -72 c3 -14 1 -18
-9 -14 -8 3 -14 11 -14 19 0 21 17 17 23 -5z m984 -24 c-6 -20 -27 -19 -27 2
0 14 5 19 15 14 9 -3 14 -10 12 -16z m-992 -95 c-3 -3 -10 -1 -15 4 -7 7 -6
22 2 45 l13 34 3 -39 c2 -21 1 -41 -3 -44z m955 74 c0 -3 -4 -8 -10 -11 -5 -3
-10 -1 -10 4 0 6 5 11 10 11 6 0 10 -2 10 -4z m3160 -66 c0 -11 -4 -20 -10
-20 -5 0 -10 9 -10 20 0 11 5 20 10 20 6 0 10 -9 10 -20z m-53 -27 c-3 -10 -5
-4 -5 12 0 17 2 24 5 18 2 -7 2 -21 0 -30z m-1937 -19 c0 -8 -4 -14 -10 -14
-5 0 -10 9 -10 21 0 11 5 17 10 14 6 -3 10 -13 10 -21z m-1241 0 c3 -3 8 -27
11 -54 7 -58 -3 -73 -47 -68 -28 3 -28 4 -24 63 1 33 5 64 8 68 4 7 42 0 52
-9z m-352 -76 c-2 -13 -4 -3 -4 22 0 25 2 35 4 23 2 -13 2 -33 0 -45z m138 52
c-3 -5 -10 -10 -16 -10 -5 0 -9 5 -9 10 0 6 7 10 16 10 8 0 12 -4 9 -10z
m3392 -27 c-3 -10 -5 -4 -5 12 0 17 2 24 5 18 2 -7 2 -21 0 -30z m50 15 c-3
-8 -6 -5 -6 6 -1 11 2 17 5 13 3 -3 4 -12 1 -19z m-3157 -17 c0 -6 -4 -13 -10
-16 -5 -3 -10 1 -10 9 0 9 5 16 10 16 6 0 10 -4 10 -9z m3136 -34 c-2 -18 -4
-44 -5 -59 0 -16 -6 -28 -12 -28 -6 0 -8 9 -3 23 4 12 7 41 6 65 -1 25 2 41 8
37 5 -3 8 -20 6 -38z m-3456 4 c0 -24 -25 -45 -45 -37 -22 8 -18 26 5 26 11 0
20 7 20 15 0 8 5 15 10 15 6 0 10 -8 10 -19z m128 -72 c-18 -12 -23 8 -6 28
12 15 13 15 16 -2 2 -10 -2 -21 -10 -26z m-6553 -29 c10 -17 -18 -48 -47 -52
-16 -3 -37 2 -48 9 -17 12 -22 11 -40 -7 -11 -11 -29 -20 -40 -20 -11 0 -20
-4 -20 -10 0 -5 -19 -10 -42 -10 -32 0 -49 -6 -69 -26 -28 -27 -49 -25 -49 4
0 41 27 59 117 76 49 10 93 16 98 15 6 -1 21 2 35 8 53 22 96 28 105 13z m518
-27 c25 -21 64 -51 87 -66 48 -34 45 -41 -31 -80 -47 -25 -52 -26 -74 -11 -26
17 -37 49 -28 82 7 28 -10 28 -29 0 -13 -20 -18 -21 -42 -10 -36 16 -36 62 1
97 38 34 64 32 116 -12z m6075 20 c-5 -25 -28 -28 -28 -4 0 12 6 21 16 21 9 0
14 -7 12 -17z m3142 2 c0 -8 -4 -15 -10 -15 -5 0 -10 7 -10 15 0 8 5 15 10 15
6 0 10 -7 10 -15z m68 -32 c-12 -27 -25 -61 -29 -78 -6 -26 -7 -24 -8 17 -1
26 4 50 9 53 6 3 10 17 10 31 0 17 5 24 19 24 19 0 19 -1 -1 -47z m54 -35 c-6
-6 -7 0 -4 19 5 21 7 23 10 9 2 -10 0 -22 -6 -28z m-3367 12 c3 -5 -1 -10 -10
-10 -9 0 -13 5 -10 10 3 6 8 10 10 10 2 0 7 -4 10 -10z m55 -50 c0 -33 -3 -40
-20 -40 -17 0 -20 7 -20 40 0 33 3 40 20 40 17 0 20 -7 20 -40z m103 3 c-3
-21 -14 -60 -25 -88 -11 -27 -24 -60 -29 -72 -14 -36 -29 -27 -27 17 1 26 6
40 15 40 7 0 13 11 13 25 0 18 -4 23 -15 19 -8 -4 -15 -1 -15 5 0 6 11 11 25
11 23 0 25 4 25 40 0 33 3 40 19 40 17 0 19 -5 14 -37z m3174 -105 c-4 -35 -6
-71 -6 -80 -1 -31 -21 -19 -21 12 0 35 20 130 27 130 3 0 3 -28 0 -62z m-3497
-8 c0 -5 -18 -10 -40 -10 -22 0 -40 5 -40 10 0 6 18 10 40 10 22 0 40 -4 40
-10z m220 -17 c0 -5 -5 -15 -10 -23 -9 -13 -11 -13 -20 0 -15 22 -12 30 10 30
11 0 20 -3 20 -7z m3224 -35 c4 -24 3 -38 -4 -38 -5 0 -10 19 -10 42 0 49 5
47 14 -4z m-3197 -75 c-3 -10 -5 -4 -5 12 0 17 2 24 5 18 2 -7 2 -21 0 -30z
m3163 -3 c0 -22 -4 -40 -10 -40 -5 0 -10 -12 -11 -27 l0 -28 -10 25 c-7 17 -7
26 0 28 6 2 11 21 11 43 0 21 5 39 10 39 6 0 10 -18 10 -40z m50 -18 c0 -21
-2 -24 -10 -12 -13 20 -13 53 0 45 6 -3 10 -18 10 -33z m-3213 -64 c-3 -8 -6
-5 -6 6 -1 11 2 17 5 13 3 -3 4 -12 1 -19z m3203 -8 c0 -25 -11 -51 -19 -46
-4 3 -5 21 -3 40 4 36 22 41 22 6z m-3182 -83 l26 -28 18 23 c9 13 20 19 25
14 4 -5 2 -11 -4 -13 -7 -3 -13 -16 -13 -29 0 -13 -2 -24 -4 -24 -2 0 -11 -3
-19 -6 -10 -3 -22 9 -37 40 -12 25 -26 46 -31 46 -4 0 -5 8 -2 17 5 14 8 14
11 2 3 -7 16 -27 30 -42z m2852 13 c0 -29 -4 -40 -15 -40 -11 0 -15 11 -15 40
0 29 4 40 15 40 11 0 15 -11 15 -40z m295 -39 c-3 -12 -11 -21 -17 -21 -5 0
-7 7 -4 16 3 9 6 23 6 32 0 12 3 13 11 5 6 -6 8 -20 4 -32z m-693 -208 l-5
-112 39 -4 c21 -2 5 -2 -36 0 -67 4 -73 3 -56 -10 20 -15 15 -37 -9 -37 -7 0
-16 -10 -18 -22 -2 -13 -3 1 -1 30 l3 52 -32 0 c-18 0 -50 6 -72 12 -40 12
-40 12 -10 16 16 2 33 9 37 15 6 9 8 9 8 0 0 -7 12 -13 26 -13 14 0 23 4 19 9
-3 6 3 14 12 20 10 6 12 11 6 11 -8 0 -13 15 -13 40 0 38 2 40 30 40 29 0 30
1 30 49 0 29 7 62 18 80 l17 31 6 -48 c4 -26 4 -97 1 -159z m666 96 c-6 -16
-12 -29 -13 -27 -6 6 8 58 16 58 4 0 3 -14 -3 -31z m-1738 -19 c0 -13 -20 -13
-40 0 -12 8 -9 10 13 10 15 0 27 -4 27 -10z m862 -10 c7 -11 22 -21 33 -21 18
-1 18 -2 2 -6 -11 -3 -16 -11 -13 -19 3 -9 -1 -14 -14 -14 -13 0 -18 5 -14 15
4 9 0 15 -10 15 -10 0 -16 9 -16 25 0 30 15 32 32 5z m-789 -17 c-7 -2 -21 -2
-30 0 -10 3 -4 5 12 5 17 0 24 -2 18 -5z m87 -23 c0 -5 -7 -10 -15 -10 -8 0
-15 5 -15 10 0 6 7 10 15 10 8 0 15 -4 15 -10z m70 -20 c0 -5 -4 -10 -10 -10
-5 0 -10 5 -10 10 0 6 5 10 10 10 6 0 10 -4 10 -10z m108 -27 c-10 -2 -26 -2
-35 0 -10 3 -2 5 17 5 19 0 27 -2 18 -5z m1379 -25 c-3 -7 -5 -2 -5 12 0 14 2
19 5 13 2 -7 2 -19 0 -25z m-1290 6 c-3 -3 -12 -4 -19 -1 -8 3 -5 6 6 6 11 1
17 -2 13 -5z m196 -51 c-7 -2 -19 -2 -25 0 -7 3 -2 5 12 5 14 0 19 -2 13 -5z
m940 -92 c2 -10 1 -25 -4 -32 -6 -10 -9 -4 -9 19 0 36 5 42 13 13z m70 -1 c3
-11 1 -18 -4 -14 -5 3 -9 12 -9 20 0 20 7 17 13 -6z m40 -30 c-3 -11 -7 -20
-9 -20 -2 0 -4 9 -4 20 0 11 4 20 9 20 5 0 7 -9 4 -20z m-686 -52 c-3 -8 -6
-5 -6 6 -1 11 2 17 5 13 3 -3 4 -12 1 -19z m613 -12 c0 -3 -4 -8 -10 -11 -5
-3 -10 -1 -10 4 0 6 5 11 10 11 6 0 10 -2 10 -4z m-622 -51 c-6 -14 -15 -25
-20 -25 -4 0 -9 -19 -10 -42 -1 -41 -2 -41 -5 -8 -4 39 22 114 37 105 6 -3 5
-16 -2 -30z m596 -197 c-9 -14 -23 2 -17 18 4 12 8 13 14 3 4 -7 5 -17 3 -21z
m36 5 c0 -21 -3 -24 -9 -14 -5 8 -7 20 -4 28 8 21 13 15 13 -14z m-703 -95
c-2 -13 -4 -3 -4 22 0 25 2 35 4 23 2 -13 2 -33 0 -45z m73 -88 c0 -5 -4 -10
-10 -10 -5 0 -10 5 -10 10 0 6 5 10 10 10 6 0 10 -4 10 -10z m-63 -37 c-3 -10
-5 -4 -5 12 0 17 2 24 5 18 2 -7 2 -21 0 -30z m-91 -262 c-10 -9 -16 -11 -16
-4 0 7 5 15 10 18 6 3 11 23 12 43 l1 37 4 -39 c3 -26 -1 -44 -11 -55z m-69
-223 c-3 -7 -5 -2 -5 12 0 14 2 19 5 13 2 -7 2 -19 0 -25z m-2568 -243 c14 -4
46 -21 72 -36 25 -16 58 -29 72 -29 14 0 53 -18 86 -40 33 -22 67 -40 76 -40
8 0 15 -3 15 -8 0 -4 17 -16 38 -27 20 -11 40 -23 43 -28 3 -4 29 -20 57 -35
29 -15 89 -47 134 -71 46 -24 86 -49 91 -56 4 -8 24 -19 45 -26 20 -6 49 -20
64 -30 14 -11 33 -19 42 -19 8 0 23 -11 32 -25 9 -14 23 -25 31 -25 19 0 184
-89 218 -117 20 -17 216 -113 230 -113 8 0 15 -5 15 -10 0 -6 29 -24 65 -40
36 -16 65 -34 65 -39 0 -6 30 -25 68 -43 37 -18 83 -45 102 -59 19 -14 50 -32
68 -40 17 -8 32 -16 32 -20 0 -3 22 -15 48 -27 63 -29 99 -61 80 -73 -7 -5
-20 -9 -29 -9 -16 0 -34 -29 -58 -93 -6 -15 -15 -27 -21 -27 -5 0 -10 -16 -10
-36 0 -29 8 -44 35 -71 39 -38 44 -53 17 -53 -9 0 -28 -18 -42 -40 -14 -22
-28 -40 -33 -40 -4 0 -12 -11 -16 -24 -6 -15 -20 -25 -41 -29 -25 -5 -31 -11
-30 -29 4 -40 1 -46 -25 -52 -14 -4 -30 -17 -35 -30 -5 -13 -14 -27 -19 -31
-6 -3 -11 -12 -11 -20 0 -17 -100 -125 -115 -125 -6 0 -19 -15 -30 -32 -10
-18 -35 -48 -54 -67 -20 -19 -35 -38 -34 -42 2 -4 -6 -10 -16 -14 -11 -3 -22
-12 -25 -20 -3 -8 -12 -15 -21 -15 -8 0 -21 -15 -29 -34 -18 -43 -110 -132
-153 -148 -22 -8 -33 -19 -33 -33 -1 -25 -23 -55 -41 -55 -22 -1 -59 -36 -59
-57 -1 -10 -19 -30 -40 -45 -22 -15 -40 -35 -40 -43 0 -8 -7 -15 -15 -15 -8 0
-15 -6 -15 -12 0 -9 -4 -8 -10 2 -5 8 -10 11 -10 6 0 -5 -7 -2 -17 5 -15 13
-15 12 -2 -8 13 -21 11 -25 -29 -61 -23 -21 -42 -44 -42 -50 0 -7 -11 -17 -25
-22 -14 -5 -25 -14 -25 -20 0 -7 -24 -9 -67 -5 -65 5 -91 18 -143 76 -3 3 -12
9 -20 13 -31 14 -61 33 -80 51 -22 20 -52 38 -89 55 -13 6 -32 20 -41 30 -10
11 -21 20 -25 20 -4 0 -16 11 -27 25 -11 14 -26 25 -33 25 -8 0 -36 18 -62 41
-26 22 -97 78 -158 124 -60 47 -126 98 -145 115 -49 43 -127 100 -137 100 -8
0 -90 58 -137 97 -10 8 -39 28 -64 44 -24 15 -60 42 -78 59 -36 32 -75 61
-189 137 -38 26 -90 64 -115 84 -25 20 -70 53 -100 72 -30 20 -80 57 -110 82
-30 24 -71 53 -90 64 -19 10 -51 33 -70 50 -19 17 -56 45 -82 62 -74 48 -69
68 44 169 51 45 147 125 213 178 66 54 127 104 136 112 9 8 26 22 39 30 12 8
40 29 60 45 21 17 53 42 71 56 19 15 60 48 91 73 32 25 62 46 68 46 5 0 10 4
10 9 0 5 8 12 18 15 9 3 28 16 42 28 14 13 43 35 65 50 22 15 54 40 70 55 17
16 51 44 75 63 25 19 47 38 48 42 2 4 9 8 15 8 7 0 30 17 52 38 22 21 58 51
80 67 22 16 45 34 50 39 14 15 67 34 85 31 8 -2 26 -7 39 -10z m2408 -467 c-3
-7 -5 -2 -5 12 0 14 2 19 5 13 2 -7 2 -19 0 -25z m-31 -175 c-10 -10 -19 5
-10 18 6 11 8 11 12 0 2 -7 1 -15 -2 -18z m-95 -436 c-8 -8 -11 -5 -11 9 0 27
14 41 18 19 2 -9 -1 -22 -7 -28z m-165 -174 c-10 -26 -29 1 -21 28 7 20 8 21
17 5 5 -9 7 -24 4 -33z"/>
<path d="M9432 13730 c0 -14 2 -19 5 -12 2 6 2 18 0 25 -3 6 -5 1 -5 -13z"/>
<path d="M10243 12075 c0 -22 2 -30 4 -17 2 12 2 30 0 40 -3 9 -5 -1 -4 -23z"/>
<path d="M11740 11700 c0 -5 6 -10 14 -10 8 0 18 5 21 10 3 6 -3 10 -14 10
-12 0 -21 -4 -21 -10z"/>
<path d="M10222 11595 c0 -16 2 -22 5 -12 2 9 2 23 0 30 -3 6 -5 -1 -5 -18z"/>
<path d="M10293 11335 c0 -27 2 -38 4 -22 2 15 2 37 0 50 -2 12 -4 0 -4 -28z"/>
<path d="M9340 10805 c0 -8 -4 -15 -10 -15 -5 0 -10 -4 -10 -10 0 -5 7 -10 15
-10 9 0 15 9 15 25 0 14 -2 25 -5 25 -3 0 -5 -7 -5 -15z"/>
<path d="M9760 10286 c0 -11 9 -16 26 -16 31 0 28 23 -4 28 -15 2 -22 -2 -22
-12z"/>
<path d="M9760 10228 c0 -10 7 -18 15 -18 27 0 76 -42 70 -61 -7 -22 22 -33
33 -12 6 10 4 27 -6 47 -23 46 -40 59 -78 61 -26 0 -34 -3 -34 -17z"/>
<path d="M10822 10119 c-31 -12 -27 -26 8 -34 31 -7 65 9 55 25 -8 13 -40 17
-63 9z"/>
<path d="M11236 9114 c-9 -23 -7 -72 3 -78 8 -6 21 39 21 75 0 23 -16 25 -24
3z"/>
<path d="M10880 8960 c0 -5 5 -10 10 -10 6 0 10 5 10 10 0 6 -4 10 -10 10 -5
0 -10 -4 -10 -10z"/>
<path d="M11480 8629 c0 -5 5 -7 10 -4 6 3 10 8 10 11 0 2 -4 4 -10 4 -5 0
-10 -5 -10 -11z"/>
<path d="M12568 11583 c7 -3 16 -2 19 1 4 3 -2 6 -13 5 -11 0 -14 -3 -6 -6z"/>
<path d="M13150 10150 c0 -64 3 -80 15 -80 12 0 15 16 15 80 0 64 -3 80 -15
80 -12 0 -15 -16 -15 -80z"/>
<path d="M11840 9334 c0 -8 5 -12 10 -9 6 3 10 10 10 16 0 5 -4 9 -10 9 -5 0
-10 -7 -10 -16z"/>
<path d="M12098 8393 c12 -2 32 -2 45 0 12 2 2 4 -23 4 -25 0 -35 -2 -22 -4z"/>
<path d="M12180 8351 c0 -22 -5 -41 -12 -44 -22 -7 -1 -19 21 -12 17 5 21 15
21 51 0 32 -4 44 -15 44 -11 0 -15 -11 -15 -39z"/>
<path d="M12720 8245 c0 -9 9 -15 21 -15 18 0 19 2 9 15 -7 8 -16 15 -21 15
-5 0 -9 -7 -9 -15z"/>
<path d="M13490 8141 c0 -5 7 -14 15 -21 13 -10 15 -9 15 9 0 12 -6 21 -15 21
-8 0 -15 -4 -15 -9z"/>
<path d="M12626 8005 c-3 -8 -1 -15 4 -15 6 0 10 7 10 15 0 8 -2 15 -4 15 -2
0 -6 -7 -10 -15z"/>
<path d="M12721 7974 c0 -11 3 -14 6 -6 3 7 2 16 -1 19 -3 4 -6 -2 -5 -13z"/>
<path d="M12700 7895 c-7 -8 -16 -15 -21 -15 -16 0 -159 -73 -159 -81 0 -5 8
-13 19 -18 14 -8 38 0 107 36 99 50 120 66 110 82 -10 16 -41 14 -56 -4z"/>
<path d="M13360 7602 c0 -11 9 -31 20 -44 11 -12 29 -35 40 -49 22 -30 83 -63
120 -66 14 -1 43 -4 65 -7 22 -2 88 -7 148 -11 86 -6 107 -4 107 7 0 22 -144
149 -186 165 -23 8 -96 16 -176 20 -133 5 -138 4 -138 -15z"/>
<path d="M13035 7540 c3 -5 10 -10 16 -10 5 0 9 5 9 10 0 6 -7 10 -16 10 -8 0
-12 -4 -9 -10z"/>
<path d="M13332 7478 c5 -15 58 -24 58 -10 0 5 -10 12 -22 16 -34 9 -40 7 -36
-6z"/>
<path d="M13246 7440 c5 -5 25 -12 44 -15 l35 -6 -40 15 c-47 18 -52 19 -39 6z"/>
<path d="M15080 8859 c0 -5 5 -7 10 -4 6 3 10 8 10 11 0 2 -4 4 -10 4 -5 0
-10 -5 -10 -11z"/>
<path d="M15080 8800 c0 -5 5 -10 11 -10 5 0 7 5 4 10 -3 6 -8 10 -11 10 -2 0
-4 -4 -4 -10z"/>
<path d="M14958 8363 c-1 -16 -1 -40 0 -56 1 -15 -6 -39 -15 -54 -10 -15 -16
-37 -15 -49 2 -12 -2 -25 -7 -29 -17 -10 -14 -65 4 -65 9 0 15 9 15 24 0 14 5
28 11 32 6 3 9 19 7 35 -3 20 0 29 9 29 10 0 13 20 13 80 0 47 -4 80 -10 80
-5 0 -11 -12 -12 -27z"/>
<path d="M11437 4684 c-10 -10 -9 -52 2 -58 13 -8 33 20 29 40 -3 19 -20 28
-31 18z"/>
<path d="M6255 14220 c11 -5 34 -9 52 -9 17 -1 35 -5 38 -11 3 -5 19 -10 34
-10 15 0 36 -7 47 -15 10 -8 33 -15 51 -15 18 0 76 -11 130 -24 54 -14 123
-28 153 -31 30 -4 66 -12 80 -18 14 -6 33 -11 43 -12 10 -2 28 -7 40 -12 24
-11 120 -33 180 -40 20 -3 40 -9 43 -14 3 -5 23 -9 45 -9 22 0 61 -11 89 -25
34 -17 51 -21 56 -14 5 8 30 10 80 6 47 -4 75 -3 80 4 9 15 5 17 -69 31 -37 7
-67 16 -67 19 0 4 -26 10 -57 14 -80 9 -104 16 -97 26 3 5 -1 6 -9 3 -8 -3
-42 2 -75 10 -33 9 -74 16 -90 16 -17 0 -33 4 -36 9 -3 5 -31 12 -62 16 -32 4
-64 10 -73 15 -27 13 -148 43 -291 71 -30 6 -59 14 -65 19 -5 4 -68 8 -140 8
-84 1 -123 -2 -110 -8z"/>
<path d="M6635 14220 c-7 -12 85 -21 103 -10 10 5 13 10 7 10 -86 7 -106 7
-110 0z"/>
<path d="M7677 14219 c8 -8 19 -8 40 -1 28 10 28 10 -11 11 -29 1 -37 -2 -29
-10z"/>
<path d="M10195 14220 c4 -6 11 -8 16 -5 14 9 11 15 -7 15 -8 0 -12 -5 -9 -10z"/>
<path d="M11760 14221 c0 -14 27 -21 76 -21 28 0 43 -4 39 -10 -3 -5 -21 -10
-38 -10 -18 0 -52 -6 -77 -14 -45 -14 -45 -14 -16 -21 26 -7 295 1 303 9 2 2
1 10 -2 18 -4 10 -18 15 -37 14 -17 0 -33 5 -35 12 -3 6 3 12 12 12 9 0 13 5
10 10 -8 12 -235 13 -235 1z"/>
<path d="M1960 14200 c0 -12 42 -31 50 -23 6 5 -30 33 -42 33 -4 0 -8 -5 -8
-10z"/>
<path d="M2272 14198 c-13 -13 -17 -58 -4 -58 15 0 52 31 52 44 0 8 -7 17 -16
20 -20 8 -18 8 -32 -6z"/>
<path d="M2806 14203 c-10 -11 -7 -21 20 -52 27 -32 44 -33 44 -2 0 19 -54 64
-64 54z"/>
<path d="M7785 14200 c3 -5 12 -10 20 -10 8 0 17 5 20 10 4 6 -5 10 -20 10
-15 0 -24 -4 -20 -10z"/>
<path d="M623 14175 c2 -5 9 -10 15 -10 5 0 14 -3 18 -7 4 -5 18 -8 31 -8 18
0 24 5 21 18 -3 13 -13 17 -46 17 -23 0 -41 -4 -39 -10z"/>
<path d="M848 14179 c-10 -5 -18 -17 -18 -24 0 -19 -14 -19 -30 0 -18 22 -37
18 -44 -7 -7 -30 7 -42 49 -41 27 1 35 -3 35 -17 0 -20 -37 -34 -43 -16 -2 6
-8 8 -13 3 -4 -4 2 -14 14 -23 12 -8 22 -19 22 -23 0 -10 -38 -24 -57 -22 -7
1 -13 -2 -13 -7 0 -15 67 -24 89 -12 25 13 44 13 36 0 -3 -5 -1 -10 5 -10 8 0
10 13 5 41 -5 29 -3 44 6 49 10 7 10 11 0 23 -6 9 -11 32 -9 53 3 40 -7 49
-34 33z"/>
<path d="M3713 14171 c-3 -12 -13 -21 -21 -21 -12 0 -10 -5 7 -17 22 -15 25
-15 37 1 7 10 17 15 23 11 6 -3 9 0 6 7 -3 7 -15 19 -26 26 -18 12 -21 11 -26
-7z"/>
<path d="M7870 14181 c0 -10 14 -13 36 -10 4 0 11 -5 16 -13 7 -9 8 -8 6 7 -2
13 -12 21 -31 23 -15 2 -27 -1 -27 -7z"/>
<path d="M2927 14174 c-8 -8 1 -24 14 -24 5 0 9 7 9 15 0 15 -12 20 -23 9z"/>
<path d="M7830 14170 c-12 -8 -11 -10 8 -10 12 0 22 5 22 10 0 13 -11 13 -30
0z"/>
<path d="M6960 14160 c0 -5 5 -10 11 -10 5 0 7 5 4 10 -3 6 -8 10 -11 10 -2 0
-4 -4 -4 -10z"/>
<path d="M995 14150 c3 -5 8 -10 11 -10 2 0 4 5 4 10 0 6 -5 10 -11 10 -5 0
-7 -4 -4 -10z"/>
<path d="M7738 14153 c6 -2 18 -2 25 0 6 3 1 5 -13 5 -14 0 -19 -2 -12 -5z"/>
<path d="M9628 14153 c7 -3 16 -2 19 1 4 3 -2 6 -13 5 -11 0 -14 -3 -6 -6z"/>
<path d="M660 14129 c0 -6 -7 -8 -15 -5 -36 13 -76 -50 -45 -69 6 -4 8 -16 4
-28 -7 -22 -6 -22 15 -3 18 16 25 17 46 8 30 -14 33 -38 5 -47 -26 -8 -16 -25
15 -25 26 0 41 15 25 25 -16 10 -12 35 5 35 11 0 14 7 9 24 -3 13 -1 27 5 30
18 11 13 26 -9 26 -11 0 -25 9 -32 20 -14 22 -28 26 -28 9z m-17 -64 c-3 -8
-9 -15 -14 -15 -10 0 -12 24 -3 33 11 11 24 -3 17 -18z"/>
<path d="M4560 14130 c0 -5 5 -10 10 -10 6 0 10 5 10 10 0 6 -4 10 -10 10 -5
0 -10 -4 -10 -10z"/>
<path d="M8080 14134 c0 -13 36 -33 60 -34 23 -1 23 -2 5 -10 -33 -14 -3 -11
40 5 l40 14 -46 1 c-29 0 -51 6 -59 15 -12 15 -40 21 -40 9z"/>
<path d="M3790 14110 c0 -19 3 -21 12 -12 9 9 9 15 0 24 -9 9 -12 7 -12 -12z"/>
<path d="M2014 14095 c3 -8 2 -15 -2 -15 -4 0 -8 -25 -10 -55 -2 -30 1 -55 6
-55 5 0 12 -10 16 -22 5 -22 6 -22 19 -4 17 23 47 15 47 -13 0 -11 -9 -21 -22
-25 -18 -4 -20 -8 -11 -17 10 -10 17 -9 31 4 33 30 45 22 40 -28 -3 -25 -2
-45 3 -45 5 0 9 6 9 14 0 19 38 46 56 39 8 -3 14 -14 14 -24 0 -12 7 -19 19
-19 22 0 36 -29 21 -44 -23 -23 -11 -38 25 -32 22 4 35 3 35 -4 0 -5 8 -10 18
-9 10 0 12 3 5 6 -23 9 -14 31 22 51 l34 21 -26 48 c-29 55 -105 131 -139 139
-13 3 -37 -1 -55 -10 -39 -20 -39 -20 -39 -1 0 8 -11 17 -25 21 -30 7 -32 20
-5 27 28 7 25 30 -5 44 -24 10 -25 10 -20 -15 3 -15 2 -21 -1 -14 -3 6 -12 12
-20 12 -8 0 -14 9 -14 20 0 12 -7 20 -16 20 -10 0 -14 -6 -10 -15z m296 -224
c0 -6 -4 -13 -10 -16 -5 -3 -10 1 -10 9 0 9 5 16 10 16 6 0 10 -4 10 -9z"/>
<path d="M4900 14088 c0 -4 16 -8 35 -8 19 0 35 2 35 4 0 2 -16 6 -35 8 -19 2
-35 0 -35 -4z"/>
<path d="M7290 14090 c0 -5 6 -10 14 -10 8 0 18 5 21 10 3 6 -3 10 -14 10 -12
0 -21 -4 -21 -10z"/>
<path d="M8240 14091 c0 -13 89 -44 108 -36 12 4 2 12 -38 25 -63 22 -70 23
-70 11z"/>
<path d="M12468 14093 c-28 -7 -21 -23 18 -39 36 -15 84 -12 84 5 0 31 -50 48
-102 34z"/>
<path d="M3142 14070 c0 -14 2 -19 5 -12 2 6 2 18 0 25 -3 6 -5 1 -5 -13z"/>
<path d="M2895 14060 c3 -5 8 -10 11 -10 2 0 4 5 4 10 0 6 -5 10 -11 10 -5 0
-7 -4 -4 -10z"/>
<path d="M4825 14060 c3 -5 8 -10 11 -10 2 0 4 5 4 10 0 6 -5 10 -11 10 -5 0
-7 -4 -4 -10z"/>
<path d="M2639 14041 l-23 -18 23 -8 c17 -5 26 -3 33 9 7 12 14 13 35 5 29
-11 38 -7 30 16 -9 21 -69 19 -98 -4z"/>
<path d="M930 14035 c0 -8 -4 -15 -10 -15 -5 0 -10 -7 -10 -15 0 -18 12 -19
28 -3 15 15 16 48 2 48 -5 0 -10 -7 -10 -15z"/>
<path d="M8415 14041 c11 -5 30 -10 43 -10 12 -1 22 -5 22 -11 0 -5 12 -10 28
-10 35 0 102 -60 102 -92 0 -13 7 -34 16 -46 17 -25 63 -29 111 -11 l28 11
-27 22 c-32 25 -34 38 -13 59 13 13 6 15 -53 14 -58 -2 -67 0 -66 16 1 12 -5
17 -22 17 -13 0 -24 4 -24 8 0 9 -75 31 -130 38 -27 3 -31 2 -15 -5z"/>
<path d="M1200 14030 c0 -5 5 -10 10 -10 6 0 10 5 10 10 0 6 -4 10 -10 10 -5
0 -10 -4 -10 -10z"/>
<path d="M4775 14020 c-3 -5 -2 -10 4 -10 5 0 13 5 16 10 3 6 2 10 -4 10 -5 0
-13 -4 -16 -10z"/>
<path d="M6120 14026 c0 -2 9 -6 20 -9 11 -3 20 -1 20 4 0 5 -9 9 -20 9 -11 0
-20 -2 -20 -4z"/>
<path d="M5731 14004 c0 -11 3 -14 6 -6 3 7 2 16 -1 19 -3 4 -6 -2 -5 -13z"/>
<path d="M1180 14001 c0 -21 13 -41 26 -41 18 0 18 18 0 36 -17 16 -26 18 -26
5z"/>
<path d="M985 13990 c3 -5 8 -10 11 -10 2 0 4 5 4 10 0 6 -5 10 -11 10 -5 0
-7 -4 -4 -10z"/>
<path d="M2700 13996 c0 -2 7 -7 16 -10 8 -3 12 -2 9 4 -6 10 -25 14 -25 6z"/>
<path d="M2786 13992 c6 -4 13 -13 15 -20 3 -8 8 -5 17 8 11 18 10 20 -15 20
-16 0 -23 -4 -17 -8z"/>
<path d="M2910 13987 c0 -8 6 -20 14 -26 12 -10 13 -8 9 9 -7 25 -23 37 -23
17z"/>
<path d="M3513 13940 c0 -36 2 -50 4 -32 2 17 2 47 0 65 -2 17 -4 3 -4 -33z"/>
<path d="M8328 13993 c7 -3 16 -2 19 1 4 3 -2 6 -13 5 -11 0 -14 -3 -6 -6z"/>
<path d="M10880 13980 c0 -5 5 -10 10 -10 6 0 10 5 10 10 0 6 -4 10 -10 10 -5
0 -10 -4 -10 -10z"/>
<path d="M422 13950 c0 -19 2 -27 5 -17 2 9 2 25 0 35 -3 9 -5 1 -5 -18z"/>
<path d="M2545 13960 c3 -5 8 -10 11 -10 2 0 4 5 4 10 0 6 -5 10 -11 10 -5 0
-7 -4 -4 -10z"/>
<path d="M2742 13949 c2 -7 10 -15 17 -17 8 -3 12 1 9 9 -2 7 -10 15 -17 17
-8 3 -12 -1 -9 -9z"/>
<path d="M671 13934 c0 -11 3 -14 6 -6 3 7 2 16 -1 19 -3 4 -6 -2 -5 -13z"/>
<path d="M1270 13941 c0 -5 7 -12 16 -15 14 -5 15 -4 4 9 -14 17 -20 19 -20 6z"/>
<path d="M7490 13916 c0 -20 9 -26 63 -44 34 -11 96 -22 137 -25 42 -4 119
-20 175 -37 76 -25 103 -30 117 -21 9 6 19 7 23 2 3 -5 28 -12 55 -16 28 -4
50 -11 50 -17 0 -5 13 -8 29 -6 16 1 39 -2 52 -9 13 -6 51 -16 84 -23 100 -19
225 -54 225 -62 0 -4 9 -8 19 -8 11 0 26 -7 35 -15 10 -11 17 -12 22 -4 5 8
10 6 16 -5 6 -11 17 -14 33 -10 30 7 49 -25 40 -67 -4 -18 -3 -29 4 -29 6 0
11 15 11 33 0 47 10 77 26 77 8 0 14 -6 14 -12 2 -46 -3 -610 -5 -640 -2 -21
-6 -187 -9 -370 -3 -183 -9 -412 -12 -509 -4 -121 -2 -179 5 -184 6 -3 11 -1
11 6 0 7 2 10 5 7 9 -9 -14 -59 -25 -53 -6 4 -10 -12 -9 -42 0 -26 3 -42 6
-35 14 36 23 0 23 -100 0 -114 -9 -148 -11 -42 -1 32 -5 68 -10 79 -4 11 -8
-83 -9 -210 0 -126 -2 -271 -4 -322 -3 -90 5 -131 22 -107 4 7 5 101 2 210 -3
110 -2 210 2 224 6 21 7 20 6 -10 -4 -86 3 -170 12 -170 7 0 10 49 10 138 -1
136 16 487 24 500 2 4 7 72 10 152 16 394 20 526 18 540 -4 26 19 362 28 425
5 33 12 123 15 200 4 77 10 154 15 170 5 17 13 62 18 100 8 58 7 73 -6 87 -8
10 -18 15 -23 12 -5 -2 -33 2 -62 9 -35 9 -60 11 -71 5 -10 -6 -37 -4 -77 6
-33 9 -73 16 -87 16 -15 0 -59 7 -97 15 -39 9 -86 18 -105 22 -19 3 -39 9 -45
13 -5 5 -32 11 -60 15 -72 10 -158 31 -182 43 -11 6 -57 16 -102 21 -45 6 -89
14 -99 19 -9 5 -51 15 -92 22 -41 7 -92 19 -114 26 -21 8 -42 11 -47 9 -5 -3
-22 1 -38 10 -43 22 -61 19 -61 -9z m1257 -1278 c-3 -7 -5 -2 -5 12 0 14 2 19
5 13 2 -7 2 -19 0 -25z m-20 -430 c-3 -8 -6 -5 -6 6 -1 11 2 17 5 13 3 -3 4
-12 1 -19z"/>
<path d="M1900 13920 c0 -5 -7 -10 -15 -10 -20 0 -19 -13 3 -32 23 -20 52 -30
52 -18 0 6 -4 10 -10 10 -5 0 -7 13 -3 30 4 23 2 30 -11 30 -9 0 -16 -4 -16
-10z"/>
<path d="M746 13895 c-8 -32 9 -66 29 -59 8 4 15 1 15 -5 0 -6 7 -11 16 -11
13 0 12 4 -4 28 -11 15 -21 36 -23 46 -6 29 -26 30 -33 1z"/>
<path d="M8728 13913 c7 -3 16 -2 19 1 4 3 -2 6 -13 5 -11 0 -14 -3 -6 -6z"/>
<path d="M5947 13896 c-8 -19 3 -28 18 -16 9 7 16 6 25 -5 9 -11 17 -12 32 -4
19 10 19 11 1 24 -24 19 -69 19 -76 1z"/>
<path d="M5858 13889 c-24 -14 -23 -28 2 -22 11 3 20 12 20 19 0 16 0 16 -22
3z"/>
<path d="M4265 13880 c-3 -5 1 -10 9 -10 9 0 16 5 16 10 0 6 -4 10 -9 10 -6 0
-13 -4 -16 -10z"/>
<path d="M5730 13860 c0 -16 5 -30 10 -30 6 0 10 14 10 30 0 17 -4 30 -10 30
-5 0 -10 -13 -10 -30z"/>
<path d="M1960 13871 c0 -5 6 -14 14 -20 16 -13 32 2 21 19 -8 12 -35 13 -35
1z"/>
<path d="M2020 13865 c-8 -9 -8 -15 -2 -15 12 0 26 19 19 26 -2 2 -10 -2 -17
-11z"/>
<path d="M6057 13861 c3 -12 11 -17 22 -14 12 3 20 -2 24 -16 6 -24 0 -31 -26
-31 -16 0 -17 -3 -7 -15 7 -8 19 -15 26 -15 19 0 18 -34 -1 -50 -13 -10 -19
-10 -33 4 -24 21 -35 20 -50 -4 -14 -23 3 -61 24 -53 21 8 28 -19 9 -34 -12
-8 -14 -13 -6 -13 8 0 19 -8 26 -17 20 -27 79 -21 107 11 18 20 35 26 79 30
l56 5 7 -37 c3 -20 6 -46 6 -56 0 -17 -2 -18 -17 -4 -38 33 -46 32 -38 -1 5
-22 3 -33 -7 -36 -9 -4 -14 -21 -14 -48 1 -40 0 -42 -31 -45 -42 -4 -43 -27
-3 -50 28 -15 30 -20 24 -54 -3 -20 -2 -47 1 -59 7 -22 8 -22 21 -5 19 27 42
14 36 -22 -3 -26 -1 -30 29 -36 l33 -6 -28 -29 c-15 -15 -26 -33 -24 -39 2 -6
-6 -18 -17 -27 -14 -11 -16 -18 -7 -21 6 -3 12 -21 12 -40 0 -23 5 -34 15 -34
8 0 12 6 9 14 -10 27 16 27 42 1 21 -21 29 -24 35 -13 7 10 9 10 9 -3 0 -9 14
-28 31 -43 41 -36 26 -54 -24 -29 -20 10 -37 24 -37 31 0 23 -20 12 -20 -12 0
-20 9 -28 45 -42 51 -19 55 -28 23 -55 -29 -24 -33 -24 -96 3 -35 16 -54 30
-58 46 -9 33 -22 27 -19 -10 2 -26 8 -34 30 -40 15 -4 36 -15 47 -24 15 -14
36 -18 93 -17 53 0 75 -4 79 -13 3 -8 14 -14 25 -14 11 0 23 -4 26 -10 3 -5
32 -10 64 -10 31 0 62 -5 68 -11 17 -17 53 -2 46 19 -4 9 -11 20 -17 24 -5 4
2 12 18 19 25 12 29 11 46 -11 12 -16 15 -29 9 -35 -15 -15 -10 -25 14 -25 12
0 33 -7 45 -16 24 -16 68 -16 66 1 -1 6 -11 15 -22 21 -16 8 -19 13 -10 22 9
9 9 12 -2 12 -13 0 -13 2 0 10 12 7 12 12 2 22 -6 6 -12 20 -12 30 0 10 -7 18
-17 18 -9 0 -14 3 -10 6 14 14 47 -8 47 -32 0 -17 5 -24 20 -24 11 0 20 -4 20
-9 0 -5 7 -11 16 -13 16 -3 47 -74 35 -81 -3 -2 0 -2 8 0 7 2 20 -2 27 -8 12
-9 14 -2 14 41 0 45 -2 51 -15 40 -13 -10 -15 -9 -15 8 0 15 5 20 15 16 22 -9
18 13 -5 33 -11 10 -20 27 -20 40 0 12 -4 25 -10 28 -5 3 -10 -3 -10 -14 0
-23 -25 -29 -33 -8 -3 8 -1 20 4 28 12 19 11 52 -1 44 -5 -3 -10 -1 -10 4 0 6
-6 11 -14 11 -8 0 -23 14 -33 30 -18 32 -51 47 -78 36 -8 -3 -15 -10 -15 -15
0 -6 6 -8 14 -5 22 8 56 -14 56 -37 0 -28 -30 -37 -47 -13 -9 12 -23 18 -38
16 -19 -3 -26 2 -31 22 -8 33 1 45 27 39 19 -5 20 -4 8 14 -14 23 -39 20 -65
-8 -16 -18 -18 -18 -30 -1 -7 9 -14 28 -14 41 0 19 3 21 15 11 8 -7 20 -8 27
-4 7 5 21 7 31 6 10 -2 17 3 17 13 0 12 -9 15 -37 14 -21 -1 -45 1 -53 5 -10
4 -19 -3 -28 -24 -13 -28 -16 -30 -53 -24 -40 7 -54 -7 -24 -23 24 -14 2 -37
-23 -24 -15 8 -22 25 -27 66 -4 30 -5 61 -2 70 4 8 0 21 -8 29 -19 18 -19 26
-1 26 17 0 28 24 20 45 -4 8 -1 15 5 15 6 0 11 5 11 10 0 6 -9 10 -19 10 -11
0 -23 5 -26 10 -9 15 -25 12 -25 -5 0 -10 -10 -15 -30 -15 -27 0 -30 3 -30 30
0 25 4 30 25 30 14 0 25 -6 25 -12 0 -20 20 14 20 34 0 14 -7 16 -35 11 -42
-7 -45 6 -10 42 30 29 43 31 51 10 4 -8 11 -12 16 -9 6 4 8 -1 4 -14 -5 -15
-1 -22 14 -27 12 -4 22 -5 23 -3 1 1 7 12 13 22 13 25 36 34 28 12 -3 -9 -1
-16 4 -16 6 0 18 -16 28 -35 16 -34 16 -34 40 -17 27 19 32 37 8 28 -13 -5
-15 -1 -10 19 5 18 2 25 -7 25 -8 0 -22 9 -32 20 -16 17 -16 20 -2 20 24 0 31
20 14 38 -14 14 -18 14 -40 -1 -23 -15 -26 -15 -31 -1 -6 15 -9 14 -32 -1 -25
-16 -28 -16 -57 5 l-30 23 6 -23 c6 -24 -1 -50 -14 -50 -4 0 -16 16 -25 35
-15 32 -15 37 -2 53 9 9 14 22 11 28 -5 15 40 24 60 12 13 -7 14 -4 7 23 -13
44 -28 59 -61 59 -22 0 -29 -5 -29 -20 0 -11 -5 -20 -11 -20 -8 0 -9 11 -5 32
8 40 12 44 31 28 17 -14 31 -8 20 9 -3 6 -17 11 -29 11 -33 0 -53 25 -36 45
10 12 9 16 -3 21 -8 3 -18 16 -21 30 -5 19 -13 24 -38 24 -17 0 -36 6 -42 14
-14 18 -82 30 -91 16 -10 -16 -55 -12 -55 5 0 9 -9 15 -24 15 -19 0 -23 -4
-19 -19z m140 -74 c-6 -15 -55 -32 -65 -22 -3 3 7 17 23 31 29 25 53 20 42 -9z
m-29 -88 c22 -34 -17 -66 -45 -38 -9 9 -8 18 4 35 19 29 25 30 41 3z m262 -47
c0 -13 -12 -22 -22 -16 -10 6 -1 24 13 24 5 0 9 -4 9 -8z m-145 -300 c0 -44
-19 -40 -23 4 -2 25 1 35 10 32 7 -3 13 -19 13 -36z m80 -59 c15 -23 16 -25 1
-20 -9 4 -15 2 -13 -6 1 -6 -8 -13 -19 -15 -24 -3 -38 20 -29 49 9 27 40 23
60 -8z m35 -219 c0 -8 -4 -12 -10 -9 -5 3 -10 10 -10 16 0 5 5 9 10 9 6 0 10
-7 10 -16z m126 -166 c8 -13 -16 -38 -37 -38 -13 0 -19 -7 -20 -22 0 -22 -1
-22 -8 -3 -5 12 -4 23 2 26 5 4 7 14 4 22 -11 30 41 44 59 15z m205 -51 c-8
-8 -11 -7 -11 4 0 20 13 34 18 19 3 -7 -1 -17 -7 -23z"/>
<path d="M1840 13854 c0 -17 22 -14 28 4 2 7 -3 12 -12 12 -9 0 -16 -7 -16
-16z"/>
<path d="M4200 13830 c-32 -27 -33 -29 -12 -30 12 0 22 6 22 14 0 8 10 16 22
18 12 2 23 9 26 16 7 21 -22 13 -58 -18z"/>
<path d="M5877 13820 c-13 -35 -27 -39 -34 -10 -7 25 -25 26 -46 2 -23 -25
-27 -64 -9 -84 14 -16 13 -20 -1 -36 -21 -23 -21 -32 -1 -32 12 0 15 -6 10
-24 -6 -26 17 -56 29 -36 10 16 28 12 22 -5 -4 -8 -2 -17 3 -20 6 -4 10 -15
10 -26 0 -10 5 -19 10 -19 6 0 21 -11 34 -25 24 -25 47 -36 28 -12 -5 6 -13
27 -17 44 -3 18 -12 36 -19 40 -21 13 -27 43 -10 50 21 8 38 53 24 67 -12 12
-13 63 -1 70 16 10 70 -15 64 -30 -7 -18 12 -18 31 1 8 8 19 15 24 15 12 0 23
26 15 34 -4 3 -14 6 -24 6 -9 0 -26 12 -37 27 -18 24 -22 26 -37 13 -15 -12
-19 -12 -30 3 -17 24 -25 21 -38 -13z m13 -162 c0 -10 -2 -18 -3 -18 -2 0 -11
8 -20 18 -15 16 -15 18 3 18 13 0 20 -7 20 -18z"/>
<path d="M7540 13835 c0 -9 5 -15 11 -13 6 2 11 8 11 13 0 5 -5 11 -11 13 -6
2 -11 -4 -11 -13z"/>
<path d="M1300 13821 c0 -5 7 -12 16 -15 23 -9 64 -7 64 2 0 16 -13 21 -31 12
-12 -7 -20 -7 -24 0 -8 12 -25 13 -25 1z"/>
<path d="M3530 13727 c0 -68 4 -107 10 -107 10 0 4 198 -6 209 -2 2 -4 -44 -4
-102z"/>
<path d="M4265 13820 c3 -5 10 -10 16 -10 5 0 9 5 9 10 0 6 -7 10 -16 10 -8 0
-12 -4 -9 -10z"/>
<path d="M7660 13826 c0 -2 7 -6 15 -10 8 -3 15 -1 15 4 0 6 -7 10 -15 10 -8
0 -15 -2 -15 -4z"/>
<path d="M958 13808 c-7 -20 3 -49 16 -45 12 4 10 37 -4 50 -4 5 -10 3 -12 -5z"/>
<path d="M2480 13811 c0 -5 5 -13 10 -16 6 -3 10 -2 10 4 0 5 -4 13 -10 16 -5
3 -10 2 -10 -4z"/>
<path d="M822 13788 c6 -18 28 -21 28 -4 0 9 -7 16 -16 16 -9 0 -14 -5 -12
-12z"/>
<path d="M2153 13785 c-13 -14 0 -41 16 -31 13 8 15 33 4 39 -5 3 -13 -1 -20
-8z"/>
<path d="M3162 13775 c0 -16 2 -22 5 -12 2 9 2 23 0 30 -3 6 -5 -1 -5 -18z"/>
<path d="M4215 13790 c-7 -12 2 -30 16 -30 5 0 9 9 9 20 0 21 -15 27 -25 10z"/>
<path d="M2355 13760 c-3 -5 -1 -10 4 -10 6 0 11 -9 11 -20 0 -20 11 -26 23
-13 4 3 1 13 -6 21 -10 13 -9 15 5 9 12 -4 15 -2 11 9 -6 16 -39 19 -48 4z"/>
<path d="M7169 13744 c-10 -12 -15 -94 -20 -348 -11 -480 -10 -2089 0 -2105 5
-7 13 -11 19 -7 6 3 13 2 17 -4 3 -5 13 -10 22 -10 14 0 15 13 8 118 -4 64 -8
135 -7 157 0 22 3 175 5 340 3 165 8 397 11 515 3 118 8 346 11 505 12 621 15
712 24 765 5 33 5 62 0 73 -12 22 -72 23 -90 1z"/>
<path d="M7476 13751 c-9 -15 16 -28 74 -39 45 -8 252 -50 370 -75 40 -9 261
-58 305 -68 22 -5 66 -14 97 -19 32 -6 69 -15 84 -20 14 -6 36 -10 48 -10 13
0 31 -9 40 -19 16 -18 18 -42 16 -243 -3 -258 -2 -264 7 -254 4 4 11 109 16
234 4 125 8 242 9 259 1 18 -1 36 -5 39 -3 3 -52 14 -109 25 -57 10 -157 30
-223 45 -66 14 -141 29 -167 34 -26 5 -56 14 -68 20 -11 6 -25 8 -30 5 -5 -3
-26 1 -46 10 -20 8 -52 15 -72 15 -33 0 -59 5 -167 35 -144 39 -169 43 -179
26z"/>
<path d="M192 13728 c-18 -18 -15 -48 6 -55 9 -4 20 -11 23 -16 4 -5 21 1 39
14 l31 24 -28 22 c-31 26 -53 29 -71 11z"/>
<path d="M2172 13709 c2 -7 10 -15 17 -17 8 -3 12 1 9 9 -2 7 -10 15 -17 17
-8 3 -12 -1 -9 -9z"/>
<path d="M6880 13665 c0 -3 7 -16 15 -29 12 -18 24 -23 48 -21 18 1 30 6 27
11 -3 5 -15 7 -27 6 -12 -2 -31 6 -42 17 -12 12 -21 19 -21 16z"/>
<path d="M260 13630 c-12 -8 -9 -10 13 -10 15 0 27 5 27 10 0 13 -20 13 -40 0z"/>
<path d="M3590 13609 c0 -5 -4 -7 -10 -4 -5 3 -10 1 -10 -4 0 -6 7 -11 15 -11
8 0 15 7 15 15 0 8 -2 15 -5 15 -3 0 -5 -5 -5 -11z"/>
<path d="M6557 13594 c-4 -4 -7 -14 -7 -23 0 -11 3 -12 11 -4 6 6 10 16 7 23
-2 6 -7 8 -11 4z"/>
<path d="M1470 13582 c0 -5 9 -17 20 -27 15 -14 20 -15 20 -4 0 8 -9 20 -20
27 -11 7 -20 8 -20 4z"/>
<path d="M1620 13577 c0 -8 9 -22 20 -32 24 -21 28 -1 6 28 -16 20 -26 22 -26
4z"/>
<path d="M6916 13570 c-16 -17 -17 -24 -8 -45 7 -14 12 -34 12 -44 0 -14 6
-17 30 -13 17 2 30 10 30 18 0 19 17 26 23 10 3 -8 -3 -25 -14 -37 -13 -15
-16 -26 -9 -33 15 -15 38 13 40 49 4 54 0 64 -22 67 -17 2 -22 9 -20 26 3 17
-1 22 -20 21 -13 0 -32 -9 -42 -19z m48 -45 c3 -8 1 -15 -4 -15 -6 0 -10 7
-10 15 0 8 2 15 4 15 2 0 6 -7 10 -15z"/>
<path d="M7000 13580 c0 -5 7 -10 16 -10 8 0 12 5 9 10 -3 6 -10 10 -16 10 -5
0 -9 -4 -9 -10z"/>
<path d="M4770 13564 c0 -8 5 -12 10 -9 6 3 10 10 10 16 0 5 -4 9 -10 9 -5 0
-10 -7 -10 -16z"/>
<path d="M3538 13541 c-2 -14 0 -42 3 -61 6 -31 7 -32 8 -7 0 15 8 41 16 56
13 27 13 29 -4 34 -15 3 -20 -2 -23 -22z"/>
<path d="M447 13530 c-3 -13 0 -20 9 -20 15 0 19 26 5 34 -5 3 -11 -3 -14 -14z"/>
<path d="M1270 13542 c0 -12 19 -26 26 -19 2 2 -2 10 -11 17 -9 8 -15 8 -15 2z"/>
<path d="M1805 13540 c3 -5 8 -10 11 -10 2 0 4 5 4 10 0 6 -5 10 -11 10 -5 0
-7 -4 -4 -10z"/>
<path d="M1870 13540 c0 -5 5 -10 10 -10 6 0 10 5 10 10 0 6 -4 10 -10 10 -5
0 -10 -4 -10 -10z"/>
<path d="M6550 13541 c0 -6 4 -13 10 -16 6 -3 7 1 4 9 -7 18 -14 21 -14 7z"/>
<path d="M4241 13524 c0 -11 3 -14 6 -6 3 7 2 16 -1 19 -3 4 -6 -2 -5 -13z"/>
<path d="M4793 13504 c10 -33 13 -35 15 -15 2 13 -3 31 -12 39 -14 14 -14 12
-3 -24z"/>
<path d="M172 13514 c-11 -20 4 -209 33 -437 9 -65 13 -121 11 -126 -3 -4 17
-6 44 -3 l50 5 0 -42 c0 -30 -4 -41 -15 -41 -11 0 -15 -11 -15 -40 0 -22 -4
-40 -8 -40 -13 0 -32 -47 -32 -76 0 -17 8 -27 26 -34 14 -6 28 -19 31 -30 5
-20 53 -30 53 -10 0 5 21 18 46 29 27 12 48 29 51 41 3 11 12 20 19 20 8 0 14
10 14 25 0 23 4 25 43 26 23 1 32 4 20 6 -21 4 -23 10 -25 86 -1 46 -3 63 -5
40 -3 -29 -9 -43 -19 -43 -10 0 -14 -12 -14 -44 0 -48 -6 -53 -60 -50 -73 3
-141 54 -72 54 45 0 59 16 26 28 l-29 10 28 1 c20 1 27 6 27 21 0 17 -7 20
-40 20 -28 0 -40 4 -40 14 0 10 14 16 43 18 42 3 42 3 45 46 2 31 0 42 -11 42
-15 0 -32 29 -22 38 2 3 27 7 55 10 33 3 50 9 50 18 0 8 7 14 15 14 19 0 20
24 1 39 -11 9 -15 6 -20 -14 -5 -20 -13 -25 -36 -25 -23 0 -31 5 -36 25 -3 14
-14 29 -23 34 -12 7 -15 22 -13 68 2 47 -1 65 -16 83 -17 21 -17 26 -5 51 16
33 8 101 -16 129 -11 14 -35 21 -82 26 -59 6 -68 4 -77 -12z m123 -164 l30 -7
-27 -7 c-33 -10 -81 0 -73 14 7 11 25 11 70 0z m3 -233 c2 -15 8 -27 13 -27 5
0 9 -9 9 -21 0 -16 -4 -19 -22 -14 -13 4 -32 15 -42 25 -18 18 -18 20 -2 45
21 32 40 28 44 -8z m102 -2 c0 -16 -35 -21 -44 -6 -8 12 4 21 26 21 10 0 18
-7 18 -15z"/>
<path d="M1312 13518 c-16 -16 -15 -28 3 -28 8 0 15 2 15 4 0 2 3 11 6 20 7
19 -7 21 -24 4z"/>
<path d="M6025 13520 c-3 -5 -1 -10 4 -10 6 0 11 5 11 10 0 6 -2 10 -4 10 -3
0 -8 -4 -11 -10z"/>
<path d="M1532 13463 c15 -15 30 -24 34 -20 7 7 -35 46 -51 47 -5 0 3 -12 17
-27z"/>
<path d="M6080 13466 c0 -9 7 -16 16 -16 17 0 14 22 -4 28 -7 2 -12 -3 -12
-12z"/>
<path d="M1605 13460 c3 -5 8 -10 11 -10 2 0 4 5 4 10 0 6 -5 10 -11 10 -5 0
-7 -4 -4 -10z"/>
<path d="M960 13449 c0 -5 5 -7 10 -4 6 3 10 8 10 11 0 2 -4 4 -10 4 -5 0 -10
-5 -10 -11z"/>
<path d="M1584 13429 c-7 -13 27 -19 47 -9 10 6 19 13 19 16 0 7 -61 1 -66 -7z"/>
<path d="M482 13410 c0 -14 2 -19 5 -12 2 6 2 18 0 25 -3 6 -5 1 -5 -13z"/>
<path d="M1909 13420 c19 -5 53 -5 75 0 36 7 31 8 -34 8 -60 0 -68 -2 -41 -8z"/>
<path d="M4283 13393 c4 -21 11 -39 17 -41 5 -2 10 -21 10 -43 0 -32 3 -39 20
-39 16 0 20 7 20 38 0 29 -5 39 -22 47 -16 7 -24 20 -26 43 -2 17 -8 32 -14
32 -7 0 -8 -14 -5 -37z"/>
<path d="M7000 13405 c-10 -12 -10 -15 4 -15 9 0 16 7 16 15 0 8 -2 15 -4 15
-2 0 -9 -7 -16 -15z"/>
<path d="M4320 13380 c0 -11 4 -20 9 -20 13 0 32 26 24 33 -13 14 -33 6 -33
-13z"/>
<path d="M6943 13360 c5 -23 1 -36 -19 -57 -18 -20 -24 -35 -20 -53 3 -20 0
-28 -17 -36 -13 -5 -21 -16 -19 -27 2 -9 -3 -17 -10 -17 -8 0 -9 -3 -2 -10 17
-17 84 50 84 83 0 17 5 27 15 27 9 0 15 9 15 21 0 12 8 23 20 26 27 7 25 19
-7 48 -37 32 -47 31 -40 -5z"/>
<path d="M4236 13365 c-3 -8 -1 -15 4 -15 6 0 10 7 10 15 0 8 -2 15 -4 15 -2
0 -6 -7 -10 -15z"/>
<path d="M1080 13355 c0 -8 2 -15 4 -15 2 0 11 -3 20 -6 12 -4 16 0 16 15 0
14 -6 21 -20 21 -11 0 -20 -7 -20 -15z"/>
<path d="M1467 13358 c-2 -7 0 -21 5 -31 13 -24 5 -31 -21 -18 -13 7 -22 8
-26 1 -9 -14 3 -30 32 -41 31 -12 27 -41 -7 -49 -17 -4 -21 -8 -12 -14 11 -6
43 1 107 24 11 4 33 3 48 -3 19 -6 32 -6 39 1 16 16 1 30 -26 25 -14 -3 -31 1
-39 9 -12 12 -11 15 9 25 20 9 26 8 34 -5 8 -14 9 -12 10 9 0 15 7 32 15 39
25 21 0 37 -60 39 -43 1 -55 -2 -55 -14 0 -19 -19 -19 -26 0 -7 18 -21 20 -27
3z"/>
<path d="M1693 13353 c-7 -2 -13 -10 -13 -17 0 -13 35 -46 50 -46 13 0 13 26
0 51 -11 19 -16 21 -37 12z"/>
<path d="M470 13342 c0 -22 20 -53 31 -47 12 8 12 55 -1 55 -5 0 -10 -6 -10
-12 0 -9 -4 -8 -10 2 -7 11 -10 11 -10 2z"/>
<path d="M1276 13333 c-6 -14 -5 -15 5 -6 7 7 10 15 7 18 -3 3 -9 -2 -12 -12z"/>
<path d="M1998 13338 c9 -9 15 -9 24 0 9 9 7 12 -12 12 -19 0 -21 -3 -12 -12z"/>
<path d="M7006 13294 c-7 -18 0 -34 15 -34 12 0 12 37 0 44 -5 3 -12 -1 -15
-10z"/>
<path d="M1190 13291 c0 -6 4 -12 10 -16 5 -3 7 -12 3 -20 -3 -9 1 -15 11 -15
22 0 20 16 -4 40 -11 11 -20 16 -20 11z"/>
<path d="M1353 13282 c-18 -11 1 -36 22 -28 9 3 15 11 13 18 -5 15 -20 20 -35
10z"/>
<path d="M1680 13276 c0 -9 5 -16 10 -16 6 0 10 4 10 9 0 6 -4 13 -10 16 -5 3
-10 -1 -10 -9z"/>
<path d="M6765 13271 c-6 -10 33 -61 46 -61 4 0 7 9 6 20 -1 11 -4 20 -8 20
-4 0 -14 7 -23 15 -8 9 -17 11 -21 6z"/>
<path d="M1700 13240 c0 -5 7 -10 15 -10 8 0 15 5 15 10 0 6 -7 10 -15 10 -8
0 -15 -4 -15 -10z"/>
<path d="M6125 13219 c-4 -6 -5 -12 -2 -15 2 -3 7 2 10 11 7 17 1 20 -8 4z"/>
<path d="M6690 13174 c0 -17 22 -14 28 4 2 7 -3 12 -12 12 -9 0 -16 -7 -16
-16z"/>
<path d="M1547 13174 c-2 -3 -18 -6 -34 -8 -31 -4 -73 -26 -73 -37 0 -13 31
-18 50 -9 11 6 29 15 41 21 14 7 24 7 34 -1 9 -8 14 -6 19 6 3 8 6 17 6 19 0
5 -39 13 -43 9z"/>
<path d="M1385 13140 c-3 -6 1 -13 10 -16 19 -8 30 0 20 15 -8 14 -22 14 -30
1z"/>
<path d="M6775 13137 c-4 -10 -5 -21 -1 -24 10 -10 18 4 13 24 -4 17 -4 17
-12 0z"/>
<path d="M5828 13129 c-10 -5 -18 -14 -18 -19 0 -17 26 -11 45 10 20 22 4 28
-27 9z"/>
<path d="M6211 13114 c0 -11 3 -14 6 -6 3 7 2 16 -1 19 -3 4 -6 -2 -5 -13z"/>
<path d="M6866 13122 c-3 -5 4 -23 15 -40 10 -18 19 -39 19 -46 0 -20 38 -27
54 -10 8 8 24 14 35 14 16 0 21 -8 24 -37 3 -28 4 -22 5 21 2 47 0 56 -11 47
-10 -8 -17 -7 -25 1 -8 8 -17 7 -36 -5 -28 -19 -41 -9 -31 22 8 25 -36 54 -49
33z"/>
<path d="M3201 13050 c0 -36 4 -72 9 -80 12 -18 12 69 0 115 -6 23 -8 16 -9
-35z"/>
<path d="M5911 13096 c-6 -7 -8 -15 -5 -18 7 -8 44 2 44 12 0 15 -28 19 -39 6z"/>
<path d="M5976 13061 c-19 -7 -19 -8 2 -13 15 -4 22 -2 22 8 0 8 -1 14 -2 13
-2 0 -12 -4 -22 -8z"/>
<path d="M6222 13048 c-19 -19 -14 -28 17 -28 24 0 28 3 24 20 -6 23 -23 26
-41 8z"/>
<path d="M551 12990 l1 -45 8 35 c5 20 5 39 -1 45 -5 5 -9 -8 -8 -35z"/>
<path d="M3440 13006 c0 -14 -5 -28 -11 -31 -6 -4 -7 -14 -4 -24 4 -9 11 -41
15 -71 6 -48 7 -41 8 48 0 56 -2 102 -4 102 -2 0 -4 -11 -4 -24z"/>
<path d="M3468 12983 c-3 -27 -3 -50 -1 -53 9 -10 23 28 23 63 0 54 -17 46
-22 -10z"/>
<path d="M6248 12973 c-10 -2 -18 -8 -18 -13 0 -18 15 -17 34 1 19 19 17 21
-16 12z"/>
<path d="M6955 12970 c3 -5 13 -10 21 -10 8 0 12 5 9 10 -3 6 -13 10 -21 10
-8 0 -12 -4 -9 -10z"/>
<path d="M7000 12941 c0 -6 5 -13 10 -16 6 -3 10 1 10 9 0 9 -4 16 -10 16 -5
0 -10 -4 -10 -9z"/>
<path d="M7299 12904 c-3 -10 -2 -50 1 -89 l5 -70 7 68 c7 66 -3 135 -13 91z"/>
<path d="M6170 12881 c0 -6 5 -13 10 -16 6 -3 10 1 10 9 0 9 -4 16 -10 16 -5
0 -10 -4 -10 -9z"/>
<path d="M8494 12735 c0 -88 2 -123 3 -77 2 46 2 118 0 160 -1 42 -3 5 -3 -83z"/>
<path d="M6300 12765 c8 -9 24 -15 39 -13 40 5 31 23 -13 26 -36 3 -38 2 -26
-13z"/>
<path d="M6410 12735 c0 -19 5 -25 20 -25 12 0 35 -7 51 -16 22 -11 43 -13 70
-9 24 4 45 3 53 -4 10 -8 17 -6 30 8 17 18 17 20 -3 30 -11 6 -46 11 -78 11
-33 0 -63 4 -68 9 -6 4 -25 11 -42 14 -30 6 -33 4 -33 -18z"/>
<path d="M6671 12691 c-21 -14 -5 -28 41 -35 23 -4 45 -12 49 -18 9 -15 98
-48 127 -48 13 0 32 -4 42 -10 28 -15 53 -2 45 24 -3 11 -7 28 -9 36 -3 14
-34 24 -106 34 -14 2 -56 9 -95 15 -84 13 -77 13 -94 2z"/>
<path d="M6320 12680 c0 -5 7 -10 15 -10 8 0 15 5 15 10 0 6 -7 10 -15 10 -8
0 -15 -4 -15 -10z"/>
<path d="M6450 12664 c0 -8 7 -17 15 -20 8 -4 15 -14 16 -23 0 -12 2 -12 9 4
13 29 12 31 -15 43 -21 10 -25 9 -25 -4z"/>
<path d="M6361 12615 c-13 -14 -21 -31 -18 -39 16 -42 192 -78 185 -38 -1 9 1
22 5 28 4 7 0 14 -8 18 -8 3 -17 1 -20 -4 -9 -15 -41 -12 -55 5 -14 17 -47 20
-52 5 -2 -6 -8 -6 -18 1 -13 8 -13 11 3 23 9 7 17 16 17 20 0 13 -16 5 -39
-19z"/>
<path d="M161 12614 c0 -11 3 -14 6 -6 3 7 2 16 -1 19 -3 4 -6 -2 -5 -13z"/>
<path d="M5794 12590 c-7 -7 -8 -32 -3 -69 11 -79 25 -111 47 -111 19 0 69 49
64 63 -1 4 3 7 8 7 6 0 10 -7 10 -15 0 -9 11 -21 25 -27 16 -7 24 -17 20 -26
-3 -8 2 -20 11 -27 14 -10 15 -14 3 -34 -12 -18 -12 -23 1 -32 20 -13 112 -2
126 16 6 8 18 15 27 15 9 0 18 4 21 9 3 4 18 6 33 3 23 -4 26 -2 16 9 -19 19
-16 29 7 29 13 0 20 -7 20 -20 0 -15 7 -20 24 -20 14 0 28 -5 32 -11 5 -8 -3
-10 -25 -7 -17 2 -31 2 -31 -2 0 -13 37 -40 44 -33 4 5 6 1 4 -7 -4 -18 59
-27 75 -11 8 8 7 11 -2 11 -10 0 -10 4 -3 13 5 6 13 45 17 85 5 52 11 72 21
72 9 0 14 -12 14 -35 0 -23 6 -38 15 -42 21 -7 21 -6 27 49 l5 47 -51 -1 c-28
-1 -57 -7 -64 -15 -7 -7 -24 -13 -36 -13 -19 0 -22 4 -18 25 6 31 -25 35 -36
5 -7 -20 -9 -19 -29 8 -24 32 -53 40 -159 45 -48 3 -61 0 -57 -10 4 -9 -4 -13
-26 -13 -19 0 -34 -6 -37 -15 -4 -8 -14 -15 -24 -15 -10 0 -23 7 -30 15 -11
13 -8 15 17 15 17 0 38 8 47 19 16 18 15 19 -53 40 -79 24 -83 25 -97 11z
m346 -120 c-6 -11 -13 -20 -15 -20 -2 0 -9 9 -15 20 -9 18 -8 20 15 20 23 0
24 -2 15 -20z m68 -11 c-10 -5 -18 -17 -18 -24 0 -8 -9 -15 -19 -15 -27 0 -16
38 13 43 37 7 41 7 24 -4z"/>
<path d="M6756 12561 c-4 -5 0 -11 6 -14 10 -3 10 -9 1 -24 -10 -18 -8 -23 17
-42 49 -36 200 -25 200 14 0 8 -6 15 -12 15 -10 0 -10 2 0 9 10 6 3 13 -23 25
-29 14 -39 15 -51 5 -11 -9 -18 -8 -32 5 -20 17 -97 22 -106 7z m164 -51 c14
-2 -2 -6 -35 -10 -61 -7 -79 -5 -71 9 5 7 39 7 106 1z"/>
<path d="M7000 12530 c0 -11 5 -20 10 -20 6 0 10 9 10 20 0 11 -4 20 -10 20
-5 0 -10 -9 -10 -20z"/>
<path d="M8572 12487 c-8 -9 -7 -24 3 -52 11 -33 14 -37 20 -20 4 11 10 27 15
36 8 16 -5 49 -19 49 -5 0 -13 -6 -19 -13z"/>
<path d="M6475 12438 c-4 -18 -13 -40 -20 -48 -21 -26 -45 -99 -35 -105 6 -4
8 -10 5 -15 -7 -11 17 -18 75 -22 36 -2 44 0 41 12 -1 8 -2 48 -2 88 1 56 -2
74 -14 78 -8 4 -15 15 -15 25 0 32 -28 21 -35 -13z m40 -88 c3 -5 1 -10 -4
-10 -6 0 -11 5 -11 10 0 6 2 10 4 10 3 0 8 -4 11 -10z"/>
<path d="M180 12422 c0 -18 5 -32 10 -32 6 0 8 11 4 28 -10 39 -14 40 -14 4z"/>
<path d="M6790 12408 c0 -7 -8 -21 -19 -30 -10 -8 -21 -22 -24 -29 -5 -11 -9
-10 -21 5 -19 23 -40 11 -31 -18 4 -11 10 -43 14 -71 6 -48 8 -50 39 -53 29
-3 32 -1 32 22 0 14 4 26 10 26 5 0 7 -6 4 -14 -3 -8 0 -17 7 -22 8 -4 10 -3
5 4 -9 15 15 52 35 52 17 0 29 26 21 48 -3 10 -8 10 -22 -3 -23 -21 -40 -12
-40 21 0 29 24 42 45 24 12 -10 21 -10 42 -1 22 10 29 9 47 -9 17 -15 25 -17
34 -8 9 9 16 7 32 -7 20 -18 20 -18 20 17 l0 35 -77 7 c-43 3 -95 9 -115 12
-29 5 -38 3 -38 -8z m10 -103 c0 -16 -41 -28 -53 -16 -5 5 -7 14 -3 19 8 14
56 12 56 -3z"/>
<path d="M5760 12401 c0 -5 7 -12 16 -15 14 -5 15 -4 4 9 -14 17 -20 19 -20 6z"/>
<path d="M8572 12369 c-10 -15 -9 -23 0 -39 19 -29 28 -24 28 14 0 42 -12 52
-28 25z"/>
<path d="M5760 12350 c0 -5 4 -10 9 -10 6 0 13 5 16 10 3 6 -1 10 -9 10 -9 0
-16 -4 -16 -10z"/>
<path d="M212 12280 c0 -19 2 -27 5 -17 2 9 2 25 0 35 -3 9 -5 1 -5 -18z"/>
<path d="M5957 12213 c-4 -19 0 -34 13 -47 20 -20 42 -14 33 9 -7 20 21 19 38
-1 7 -9 21 -13 33 -10 11 3 27 0 35 -7 12 -10 13 -9 6 3 -19 34 -39 50 -64 50
-14 0 -35 7 -45 15 -29 22 -43 18 -49 -12z"/>
<path d="M204 12194 c-4 -22 -2 -40 5 -47 8 -8 11 1 11 36 0 56 -7 61 -16 11z"/>
<path d="M6256 12221 c-4 -5 -2 -12 3 -15 5 -4 12 -2 15 3 4 5 2 12 -3 15 -5
4 -12 2 -15 -3z"/>
<path d="M8554 12215 c-16 -13 -17 -16 -4 -25 28 -18 50 -12 50 15 0 28 -17
32 -46 10z"/>
<path d="M5455 12211 c-35 -7 -26 -16 28 -25 33 -6 37 -5 37 14 0 21 -11 23
-65 11z"/>
<path d="M6970 12204 c0 -12 29 -34 44 -34 3 0 6 8 6 19 0 12 -9 20 -25 23
-17 4 -25 1 -25 -8z"/>
<path d="M2320 12181 c0 -17 5 -31 10 -31 6 0 10 -13 10 -30 0 -16 5 -30 11
-30 7 0 9 10 5 28 -4 15 -8 40 -9 56 -3 41 -27 47 -27 7z"/>
<path d="M2820 12200 c0 -5 5 -10 11 -10 5 0 7 5 4 10 -3 6 -8 10 -11 10 -2 0
-4 -4 -4 -10z"/>
<path d="M6460 12180 c0 -5 0 -13 0 -17 0 -12 54 -12 62 0 14 22 8 27 -27 27
-19 0 -35 -4 -35 -10z"/>
<path d="M2560 12170 c0 -5 5 -10 10 -10 6 0 10 5 10 10 0 6 -4 10 -10 10 -5
0 -10 -4 -10 -10z"/>
<path d="M5301 12161 c-7 -5 -12 -11 -12 -15 3 -18 0 -18 -12 -1 -13 17 -14
17 -19 -3 -4 -13 2 -30 14 -44 17 -20 18 -23 4 -26 -9 -2 -16 -11 -16 -20 0
-15 2 -15 10 -2 8 13 11 13 26 -2 17 -16 17 -18 -1 -38 -10 -11 -15 -20 -11
-20 3 0 -1 -14 -10 -32 -14 -27 -15 -37 -4 -66 10 -28 9 -36 -4 -51 -20 -22
-21 -45 -1 -37 8 3 15 1 15 -4 0 -5 6 -7 14 -4 14 5 50 -41 51 -66 0 -10 23
-18 85 -28 47 -8 88 -19 92 -26 5 -6 8 0 8 15 0 14 -3 29 -7 33 -4 4 -6 47 -4
96 l3 90 -31 0 c-30 0 -31 1 -31 50 0 27 5 61 12 75 11 24 12 24 30 9 17 -16
18 -16 18 10 0 25 -3 27 -27 22 -35 -8 -60 23 -43 53 9 18 5 19 -50 18 -32 0
-65 5 -72 11 -8 6 -19 7 -27 3z m63 -61 c-10 -4 -23 -5 -28 -2 -5 3 -1 9 10
12 10 4 23 5 28 2 5 -3 1 -9 -10 -12z m22 -74 c18 5 26 1 31 -12 3 -11 11 -22
17 -26 7 -5 7 -8 -2 -8 -7 0 -18 -14 -24 -30 -5 -17 -15 -29 -21 -27 -17 5
-49 67 -35 67 6 0 3 9 -7 20 -15 17 -16 22 -4 36 13 16 14 16 17 -4 3 -18 8
-21 28 -16z"/>
<path d="M6713 12154 c-9 -25 8 -34 55 -30 50 4 68 22 30 30 -62 13 -80 13
-85 0z"/>
<path d="M6050 12140 c0 -5 -13 -7 -30 -3 -26 5 -30 3 -30 -16 0 -14 6 -21 19
-21 10 0 24 -7 31 -15 28 -33 71 -8 56 32 -6 14 -9 15 -15 4 -11 -17 -32 -5
-24 14 3 8 2 15 -1 15 -3 0 -6 -4 -6 -10z"/>
<path d="M2640 12120 c0 -5 7 -10 15 -10 8 0 15 5 15 10 0 6 -7 10 -15 10 -8
0 -15 -4 -15 -10z"/>
<path d="M6180 12120 c0 -5 4 -10 9 -10 6 0 13 5 16 10 3 6 -1 10 -9 10 -9 0
-16 -4 -16 -10z"/>
<path d="M6920 12120 c0 -6 7 -10 15 -10 8 0 15 2 15 4 0 2 -7 6 -15 10 -8 3
-15 1 -15 -4z"/>
<path d="M5164 12084 c3 -22 11 -78 18 -126 6 -49 16 -88 20 -88 31 0 25 133
-7 156 -12 9 -16 23 -13 50 2 25 -2 39 -11 42 -10 3 -12 -4 -7 -34z"/>
<path d="M5490 12110 c20 -13 40 -13 40 0 0 6 -12 10 -27 10 -22 0 -25 -2 -13
-10z"/>
<path d="M6454 12088 c3 -13 6 -33 6 -44 0 -15 8 -24 26 -28 34 -9 54 8 26 23
-10 6 -22 8 -24 5 -3 -3 -8 2 -11 10 -4 9 -1 18 5 22 7 4 8 3 4 -4 -5 -8 0
-12 14 -12 11 0 23 7 27 15 7 20 6 21 -41 29 -37 7 -38 6 -32 -16z"/>
<path d="M6837 12082 c-27 -30 -22 -45 14 -38 26 5 36 0 70 -34 22 -22 44 -40
49 -40 21 0 9 30 -20 50 -16 12 -30 26 -30 32 0 14 -39 48 -55 48 -7 0 -19 -8
-28 -18z"/>
<path d="M6730 12080 c-13 -9 -13 -12 3 -21 12 -7 16 -17 12 -30 -7 -22 10
-26 19 -4 3 8 12 15 21 15 20 0 19 36 -1 44 -22 8 -37 7 -54 -4z"/>
<path d="M1190 12020 c-13 -9 -13 -11 0 -20 8 -5 20 -10 27 -10 19 0 27 21 12
31 -18 11 -21 11 -39 -1z"/>
<path d="M233 11960 c0 -36 2 -50 4 -32 2 17 2 47 0 65 -2 17 -4 3 -4 -33z"/>
<path d="M1100 12004 c-19 -8 -50 -14 -70 -12 -20 2 -39 -3 -45 -10 -6 -7 -26
-15 -45 -18 -27 -4 -41 -1 -59 15 -13 12 -30 21 -37 21 -7 0 -19 3 -28 6 -11
4 -16 1 -16 -10 0 -10 13 -22 31 -28 l32 -11 -23 -17 c-13 -10 -21 -25 -18
-36 3 -17 11 -18 88 -15 47 1 94 8 105 14 11 6 29 11 40 11 29 1 79 35 97 67
25 42 8 49 -52 23z"/>
<path d="M2670 12000 c0 -5 5 -10 10 -10 6 0 10 5 10 10 0 6 -4 10 -10 10 -5
0 -10 -4 -10 -10z"/>
<path d="M5782 11990 c0 -14 2 -19 5 -12 2 6 2 18 0 25 -3 6 -5 1 -5 -13z"/>
<path d="M6160 11915 c0 -65 3 -86 13 -82 6 2 12 16 12 31 0 15 7 31 15 36 13
8 12 10 -2 10 -18 0 -22 13 -19 57 1 11 -3 24 -8 28 -8 4 -11 -22 -11 -80z"/>
<path d="M6997 11986 c-3 -8 1 -22 8 -33 13 -17 14 -16 15 15 0 33 -13 43 -23
18z"/>
<path d="M2775 11980 c3 -5 12 -10 20 -10 8 0 17 5 20 10 4 6 -5 10 -20 10
-15 0 -24 -4 -20 -10z"/>
<path d="M3531 11974 c0 -11 3 -14 6 -6 3 7 2 16 -1 19 -3 4 -6 -2 -5 -13z"/>
<path d="M4900 11953 c0 -21 5 -45 10 -53 9 -13 11 -13 21 0 8 11 12 12 16 3
2 -7 11 -13 19 -13 10 0 14 14 14 50 0 62 -24 70 -35 13 l-8 -38 -10 38 c-5
20 -13 37 -18 37 -5 0 -9 -17 -9 -37z"/>
<path d="M6796 11965 c-3 -9 0 -15 9 -15 16 0 20 16 6 24 -5 3 -11 -1 -15 -9z"/>
<path d="M1851 11941 c-10 -6 -9 -10 3 -14 8 -3 18 -2 21 3 8 13 -9 20 -24 11z"/>
<path d="M1900 11920 c0 -27 3 -30 31 -30 24 0 30 3 25 16 -3 9 -6 22 -6 30 0
8 -10 14 -25 14 -21 0 -25 -5 -25 -30z"/>
<path d="M1785 11930 c3 -5 12 -10 20 -10 8 0 17 5 20 10 4 6 -5 10 -20 10
-15 0 -24 -4 -20 -10z"/>
<path d="M6717 11916 c-5 -13 2 -16 38 -16 25 0 45 4 45 9 0 14 -37 20 -50 7
-8 -8 -13 -7 -19 2 -7 11 -9 10 -14 -2z"/>
<path d="M5782 11890 c0 -14 2 -19 5 -12 2 6 2 18 0 25 -3 6 -5 1 -5 -13z"/>
<path d="M985 11860 c-5 -9 -23 -11 -56 -7 -39 5 -49 3 -49 -8 0 -9 -10 -15
-26 -15 -16 0 -24 -5 -22 -12 3 -8 26 -14 59 -16 72 -3 101 -10 93 -23 -6 -11
53 -3 91 12 15 6 9 8 -22 8 -66 1 -51 18 22 26 59 6 86 18 72 31 -3 3 -39 8
-80 11 -54 4 -76 2 -82 -7z"/>
<path d="M2350 11854 c0 -14 3 -14 15 -4 8 7 15 14 15 16 0 2 -7 4 -15 4 -8 0
-15 -7 -15 -16z"/>
<path d="M1864 11843 l-92 -4 12 -24 c6 -14 18 -25 26 -25 12 0 12 2 2 9 -31
19 63 30 99 11 14 -8 27 -6 49 5 29 15 33 38 7 33 -7 -1 -53 -4 -103 -5z"/>
<path d="M6717 11789 c-7 -26 7 -67 17 -51 10 17 36 15 58 -5 12 -11 22 -13
29 -6 13 13 0 46 -16 39 -7 -2 -17 6 -24 20 -14 31 -56 33 -64 3z"/>
<path d="M6880 11800 c0 -5 9 -10 20 -10 11 0 20 5 20 10 0 6 -9 10 -20 10
-11 0 -20 -4 -20 -10z"/>
<path d="M5243 11768 c-5 -13 -8 -29 -6 -35 5 -15 69 -17 78 -3 9 15 -15 52
-30 47 -7 -3 -17 -1 -22 4 -6 6 -13 1 -20 -13z"/>
<path d="M3070 11770 c0 -5 12 -10 28 -9 24 0 25 1 7 9 -27 12 -35 12 -35 0z"/>
<path d="M6102 11751 c-10 -6 -10 -10 2 -20 10 -9 16 -9 21 -1 10 16 -7 31
-23 21z"/>
<path d="M6872 11752 c-9 -7 -8 -13 8 -27 18 -16 23 -17 30 -5 22 34 -3 54
-38 32z"/>
<path d="M254 11728 c3 -13 8 -48 11 -78 4 -30 9 -71 12 -90 6 -33 6 -34 13
-10 13 43 11 98 -5 114 -8 8 -15 31 -15 50 0 20 -5 36 -11 36 -7 0 -9 -9 -5
-22z"/>
<path d="M1181 11736 c-28 -16 -10 -27 32 -19 30 6 35 18 11 27 -19 7 -14 8
-43 -8z"/>
<path d="M2365 11740 c3 -5 13 -10 21 -10 8 0 14 5 14 10 0 6 -9 10 -21 10
-11 0 -17 -4 -14 -10z"/>
<path d="M3541 11734 c0 -11 3 -14 6 -6 3 7 2 16 -1 19 -3 4 -6 -2 -5 -13z"/>
<path d="M6500 11712 c0 -23 5 -42 10 -42 16 0 16 57 -1 75 -5 5 -9 -7 -9 -33z"/>
<path d="M7012 11730 c0 -14 2 -19 5 -12 2 6 2 18 0 25 -3 6 -5 1 -5 -13z"/>
<path d="M880 11721 c0 -11 25 -32 32 -26 3 3 45 8 93 10 137 7 131 25 -8 25
-64 0 -117 -4 -117 -9z"/>
<path d="M6165 11703 c4 -10 10 -28 12 -40 3 -13 12 -23 19 -23 18 0 18 10 -2
48 -16 33 -42 46 -29 15z"/>
<path d="M6714 11709 c-10 -16 5 -26 31 -21 14 2 25 10 25 17 0 14 -47 17 -56
4z"/>
<path d="M2560 11690 c0 -5 -13 -10 -30 -10 -16 0 -30 -4 -30 -10 0 -11 49
-14 74 -4 20 8 21 34 1 34 -8 0 -15 -4 -15 -10z"/>
<path d="M5274 11679 c-7 -12 22 -23 40 -16 8 3 22 -3 32 -14 13 -15 30 -19
76 -19 38 0 57 4 53 10 -4 6 -12 9 -18 8 -15 -4 -97 23 -97 31 0 10 -80 10
-86 0z"/>
<path d="M6940 11679 c0 -5 5 -7 10 -4 6 3 10 8 10 11 0 2 -4 4 -10 4 -5 0
-10 -5 -10 -11z"/>
<path d="M7006 11681 c-4 -7 -5 -15 -2 -18 9 -9 19 4 14 18 -4 11 -6 11 -12 0z"/>
<path d="M1640 11650 c0 -11 65 -24 85 -16 32 12 13 26 -35 26 -27 0 -50 -4
-50 -10z"/>
<path d="M1835 11650 c3 -5 10 -10 16 -10 5 0 9 5 9 10 0 6 -7 10 -16 10 -8 0
-12 -4 -9 -10z"/>
<path d="M6110 11650 c0 -5 7 -10 16 -10 8 0 12 5 9 10 -3 6 -10 10 -16 10 -5
0 -9 -4 -9 -10z"/>
<path d="M6870 11650 c-11 -7 -12 -12 -3 -21 13 -13 33 -4 33 17 0 16 -9 18
-30 4z"/>
<path d="M1309 11646 c-2 -3 -62 -7 -132 -10 -70 -3 -133 -8 -139 -12 -7 -5
-41 -7 -76 -6 -69 3 -93 -8 -85 -37 6 -23 31 -31 106 -31 31 0 57 -4 57 -9 0
-6 14 -5 35 0 19 6 39 8 44 4 5 -3 8 6 6 20 -1 16 3 25 12 25 8 0 12 -3 10 -7
-3 -5 -1 -18 4 -30 7 -19 16 -23 49 -23 23 0 50 4 60 10 10 5 38 12 61 14 122
12 159 26 159 61 0 17 7 25 23 28 12 2 -26 5 -84 6 -58 0 -108 -1 -110 -3z"/>
<path d="M1588 11643 c6 -2 18 -2 25 0 6 3 1 5 -13 5 -14 0 -19 -2 -12 -5z"/>
<path d="M2552 11643 c-94 -7 -48 -39 58 -42 64 -1 81 12 40 33 -18 9 -36 15
-39 14 -3 -1 -30 -3 -59 -5z"/>
<path d="M6480 11630 c0 -5 7 -10 15 -10 8 0 15 5 15 10 0 6 -7 10 -15 10 -8
0 -15 -4 -15 -10z"/>
<path d="M6720 11624 c0 -8 5 -12 10 -9 6 3 10 10 10 16 0 5 -4 9 -10 9 -5 0
-10 -7 -10 -16z"/>
<path d="M5500 11620 c0 -5 9 -10 20 -10 11 0 20 5 20 10 0 6 -9 10 -20 10
-11 0 -20 -4 -20 -10z"/>
<path d="M5280 11605 c0 -8 5 -15 11 -15 6 0 9 -7 6 -15 -8 -18 9 -29 48 -30
80 -3 95 -6 95 -16 0 -7 -20 -9 -59 -5 -33 3 -70 2 -83 -3 -29 -12 -17 -14 83
-15 43 -1 72 2 66 6 -11 6 68 25 86 20 4 -1 7 3 7 8 0 6 -9 10 -19 10 -11 0
-41 9 -68 21 -31 13 -58 18 -79 14 -26 -4 -32 -2 -37 15 -6 24 -57 29 -57 5z"/>
<path d="M6940 11600 c0 -5 9 -10 20 -10 11 0 20 5 20 10 0 6 -9 10 -20 10
-11 0 -20 -4 -20 -10z"/>
<path d="M1648 11583 c7 -3 16 -2 19 1 4 3 -2 6 -13 5 -11 0 -14 -3 -6 -6z"/>
<path d="M1488 11563 c7 -3 16 -2 19 1 4 3 -2 6 -13 5 -11 0 -14 -3 -6 -6z"/>
<path d="M6770 11560 c0 -6 7 -10 15 -10 8 0 15 2 15 4 0 2 -7 6 -15 10 -8 3
-15 1 -15 -4z"/>
<path d="M1825 11540 c-3 -5 -1 -10 4 -10 6 0 11 5 11 10 0 6 -2 10 -4 10 -3
0 -8 -4 -11 -10z"/>
<path d="M1700 11530 c0 -13 20 -13 40 0 12 8 9 10 -12 10 -16 0 -28 -4 -28
-10z"/>
<path d="M6903 11505 c-3 -9 -3 -18 0 -21 9 -9 27 6 27 22 0 19 -19 18 -27 -1z"/>
<path d="M280 11495 c0 -8 2 -15 4 -15 2 0 6 7 10 15 3 8 1 15 -4 15 -6 0 -10
-7 -10 -15z"/>
<path d="M6450 11461 c0 -48 12 -72 25 -51 4 6 15 8 26 5 24 -8 24 0 -1 27
-11 12 -20 32 -20 45 0 14 -6 23 -15 23 -11 0 -15 -12 -15 -49z"/>
<path d="M5508 11493 c6 -2 18 -2 25 0 6 3 1 5 -13 5 -14 0 -19 -2 -12 -5z"/>
<path d="M6130 11470 c-27 -18 9 -31 65 -24 55 7 65 11 65 25 0 12 -111 11
-130 -1z"/>
<path d="M6842 11448 c-12 -33 -5 -47 26 -48 6 0 12 -7 12 -15 0 -17 59 -30
95 -21 36 9 31 24 -10 32 -30 5 -34 9 -23 22 11 13 8 14 -24 10 -39 -4 -53 8
-42 37 4 9 0 15 -8 15 -7 0 -19 -14 -26 -32z"/>
<path d="M6734 11457 c-3 -9 -3 -25 1 -34 6 -16 8 -16 18 5 7 16 7 26 -1 34
-8 8 -13 7 -18 -5z"/>
<path d="M5291 11444 c8 -9 35 -14 83 -15 39 -1 61 -4 49 -6 -31 -6 -29 -23 2
-23 25 0 32 15 17 36 -4 6 -42 14 -85 17 -67 5 -77 4 -66 -9z"/>
<path d="M6880 11450 c0 -5 5 -10 11 -10 5 0 7 5 4 10 -3 6 -8 10 -11 10 -2 0
-4 -4 -4 -10z"/>
<path d="M2400 11431 c-12 -9 -12 -11 2 -16 21 -8 48 -3 51 10 3 14 -34 17
-53 6z"/>
<path d="M5500 11431 c0 -17 15 -19 28 -5 11 12 9 14 -8 14 -11 0 -20 -4 -20
-9z"/>
<path d="M6200 11390 c0 -5 6 -10 14 -10 8 0 18 5 21 10 3 6 -3 10 -14 10 -12
0 -21 -4 -21 -10z"/>
<path d="M6491 11377 c-6 -8 -7 -18 -3 -23 4 -4 0 -3 -10 4 -19 15 -37 -3 -20
-20 13 -13 49 -5 77 16 17 14 18 17 5 26 -21 13 -36 12 -49 -3z"/>
<path d="M2405 11350 c3 -5 11 -10 16 -10 6 0 7 5 4 10 -3 6 -11 10 -16 10 -6
0 -7 -4 -4 -10z"/>
<path d="M6883 11333 c-18 -2 -33 -8 -33 -12 0 -9 65 -28 109 -33 29 -4 41 20
14 28 -10 3 -26 10 -35 15 -10 5 -19 8 -20 7 -2 0 -18 -3 -35 -5z"/>
<path d="M8712 11290 c0 -14 2 -19 5 -12 2 6 2 18 0 25 -3 6 -5 1 -5 -13z"/>
<path d="M8940 11280 c0 -5 5 -10 10 -10 6 0 10 5 10 10 0 6 -4 10 -10 10 -5
0 -10 -4 -10 -10z"/>
<path d="M8440 11214 c0 -8 5 -12 10 -9 6 3 10 10 10 16 0 5 -4 9 -10 9 -5 0
-10 -7 -10 -16z"/>
<path d="M8861 11178 c0 -7 4 -22 9 -33 7 -17 9 -15 9 13 1 17 -3 32 -9 32 -5
0 -10 -6 -9 -12z"/>
<path d="M8655 11080 c-3 -5 -1 -10 4 -10 6 0 11 5 11 10 0 6 -2 10 -4 10 -3
0 -8 -4 -11 -10z"/>
</g>
</svg>
