<?xml version="1.0" standalone="no"?>
<!DOCTYPE svg PUBLIC "-//W3C//DTD SVG 20010904//EN"
 "http://www.w3.org/TR/2001/REC-SVG-20010904/DTD/svg10.dtd">
<svg version="1.0" xmlns="http://www.w3.org/2000/svg"
 width="399.000000pt" height="234.000000pt" viewBox="0 0 399.000000 234.000000"
 preserveAspectRatio="xMidYMid meet">

<g transform="translate(0.000000,234.000000) scale(0.100000,-0.100000)"
fill="#000000" stroke="none">
<path d="M369 2152 c-125 -33 -199 -104 -207 -198 -4 -52 9 -91 28 -79 4 3 10
-5 14 -18 12 -44 7 -49 -21 -27 -36 28 -41 11 -11 -42 53 -96 216 -135 358
-86 57 20 65 26 65 49 1 16 13 37 34 56 30 26 33 33 27 66 -4 20 -11 39 -16
42 -6 3 -31 -8 -56 -26 -26 -18 -68 -40 -93 -49 -32 -13 -47 -24 -49 -39 -4
-27 -30 -27 -34 0 -3 20 -10 22 -76 23 -69 1 -74 3 -108 37 -33 33 -35 39 -24
60 l13 23 9 -24 9 -25 14 26 c20 37 59 60 145 85 67 19 75 25 78 48 2 14 10
26 18 26 17 0 18 30 2 65 -13 30 -28 30 -119 7z m83 -54 c3 -8 -16 -19 -51
-30 -31 -10 -82 -33 -113 -52 -43 -26 -55 -30 -48 -16 33 63 199 138 212 98z
m126 -306 c4 -12 -38 -33 -89 -46 -21 -4 -28 -2 -32 13 -4 16 5 22 47 34 56
17 68 17 74 -1z m-217 -32 c35 0 49 -4 49 -14 0 -31 -48 -33 -107 -5 -46 22
-60 45 -17 29 14 -6 48 -10 75 -10z"/>
</g>
</svg>
